<?xml version="1.0" encoding="UTF-8" standalone="no"?>
<svg
   xmlns:ns27="http://www.iki.fi/pav/software/textext/"
   xmlns:dc="http://purl.org/dc/elements/1.1/"
   xmlns:cc="http://creativecommons.org/ns#"
   xmlns:rdf="http://www.w3.org/1999/02/22-rdf-syntax-ns#"
   xmlns:svg="http://www.w3.org/2000/svg"
   xmlns="http://www.w3.org/2000/svg"
   xmlns:sodipodi="http://sodipodi.sourceforge.net/DTD/sodipodi-0.dtd"
   xmlns:inkscape="http://www.inkscape.org/namespaces/inkscape"
   inkscape:version="1.0 (1.0+r73+1)"
   version="1.1"
   id="svg2"
   xml:space="preserve"
   width="942.63403"
   height="349.34189"
   viewBox="0 0 942.63403 349.34189"
   sodipodi:docname="conv_hmm_edited.svg"><metadata
     id="metadata8"><rdf:RDF><cc:Work
         rdf:about=""><dc:format>image/svg+xml</dc:format><dc:type
           rdf:resource="http://purl.org/dc/dcmitype/StillImage" /><dc:title></dc:title></cc:Work></rdf:RDF></metadata><defs
     id="defs6"><marker
       inkscape:isstock="true"
       style="overflow:visible;"
       id="Arrow1Lend"
       refX="0.0"
       refY="0.0"
       orient="auto"
       inkscape:stockid="Arrow1Lend"><path
         transform="scale(0.8) rotate(180) translate(12.5,0)"
         style="fill-rule:evenodd;stroke:#000000;stroke-width:1pt;stroke-opacity:0.453796;fill:#000000;fill-opacity:0.453796"
         d="M 0.0,0.0 L 5.0,-5.0 L -12.5,0.0 L 5.0,5.0 L 0.0,0.0 z "
         id="path1893" /></marker></defs><sodipodi:namedview
     inkscape:document-rotation="0"
     inkscape:current-layer="g10"
     inkscape:window-maximized="1"
     inkscape:window-y="27"
     inkscape:window-x="0"
     inkscape:cy="195.01116"
     inkscape:cx="605.3719"
     inkscape:zoom="1.0479445"
     showgrid="false"
     id="namedview4"
     inkscape:window-height="1016"
     inkscape:window-width="1920"
     inkscape:pageshadow="2"
     inkscape:pageopacity="0"
     guidetolerance="10"
     gridtolerance="10"
     objecttolerance="10"
     borderopacity="1"
     bordercolor="#666666"
     pagecolor="#ffffff" /><g
     transform="matrix(1.3333333,0,0,1.3333333,0,1.006688e-5)"
     inkscape:label="conv_hmm_edited"
     inkscape:groupmode="layer"
     id="g10"><g
       id="g12"><path
         id="path14"
         style="fill:#ffcc66;fill-opacity:0.4;fill-rule:nonzero;stroke:none"
         d="m 84.953,85.75 h -5.668 v 147.398 h 5.668 z m 0,0 H 79.285 L 136.031,29 h 5.672 z" /><g
         transform="scale(1,-1)"
         id="g16"><path
           id="path18"
           style="fill:none;stroke:#000000;stroke-width:0.3985;stroke-linecap:butt;stroke-linejoin:miter;stroke-miterlimit:10;stroke-dasharray:none;stroke-opacity:1"
           d="m 84.953,-85.75 h -5.668 v -147.398 h 5.668 z m 0,0 H 79.285 L 136.031,-29 h 5.672 z" /></g><g
         transform="scale(1,-1)"
         id="g20"><path
           id="path22"
           style="fill:none;stroke:#000000;stroke-width:0.3985;stroke-linecap:butt;stroke-linejoin:miter;stroke-miterlimit:10;stroke-dasharray:2.98883, 1.99255;stroke-dashoffset:0;stroke-opacity:0.7"
           d="m 141.703,-176.402 h -5.672" /></g><g
         transform="scale(1,-1)"
         id="g24"><path
           id="path26"
           style="fill:none;stroke:#000000;stroke-width:0.3985;stroke-linecap:butt;stroke-linejoin:miter;stroke-miterlimit:10;stroke-dasharray:2.98883, 1.99255;stroke-dashoffset:0;stroke-opacity:0.7"
           d="m 79.285,-233.148 56.746,56.746" /></g><g
         transform="scale(1,-1)"
         id="g28"><path
           id="path30"
           style="fill:none;stroke:#000000;stroke-width:0.3985;stroke-linecap:butt;stroke-linejoin:miter;stroke-miterlimit:10;stroke-dasharray:2.98883, 1.99255;stroke-dashoffset:0;stroke-opacity:0.7"
           d="M 136.031,-29 V -176.402" /></g><g
         transform="scale(1,-1)"
         id="g32"><path
           id="path34"
           style="fill:none;stroke:#000000;stroke-width:0.3985;stroke-linecap:butt;stroke-linejoin:miter;stroke-miterlimit:10;stroke-dasharray:none;stroke-opacity:1"
           d="m 79.285,-233.148 h 5.668" /></g><text
         id="text38"
         style="font-variant:normal;font-weight:normal;font-size:9.9626px;font-family:cmr10;-inkscape-font-specification:cmr10;writing-mode:lr-tb;fill:#000000;fill-opacity:1;fill-rule:nonzero;stroke:none"
         transform="translate(79.627833,243.08935)"><tspan
           id="tspan36"
           y="0"
           x="0">4</tspan></text><path
         id="path40"
         style="fill:#ffcc66;fill-opacity:0.4;fill-rule:nonzero;stroke:none"
         d="M 84.953,85.75 141.703,29 v 147.402 l -56.75,56.746 z" /><g
         transform="scale(1,-1)"
         id="g42"><path
           id="path44"
           style="fill:none;stroke:#000000;stroke-width:0.3985;stroke-linecap:butt;stroke-linejoin:miter;stroke-miterlimit:10;stroke-dasharray:none;stroke-opacity:1"
           d="m 84.953,-85.75 56.75,56.75 v -147.402 l -56.75,-56.746 z" /></g><g
         transform="scale(1,-1)"
         id="g46"><path
           id="path48"
           style="fill:none;stroke:#000000;stroke-width:0.3985;stroke-linecap:butt;stroke-linejoin:miter;stroke-miterlimit:10;stroke-dasharray:none;stroke-opacity:1"
           d="m 84.953,-233.148 56.75,56.746" /></g><text
         id="text52"
         style="font-variant:normal;font-weight:normal;font-size:8.96657px;font-family:cmr10;-inkscape-font-specification:cmr10;writing-mode:lr-tb;fill:#000000;fill-opacity:1;fill-rule:nonzero;stroke:none"
         transform="rotate(-44.998378,318.71201,-30.308301)"><tspan
           id="tspan50"
           sodipodi:role="line"
           y="0"
           x="0 4.6088157 9.2176313">128</tspan></text><g
         transform="scale(1,-1)"
         id="g54"><path
           id="path56"
           style="fill:none;stroke:#000000;stroke-width:0.3985;stroke-linecap:butt;stroke-linejoin:miter;stroke-miterlimit:10;stroke-dasharray:none;stroke-opacity:1"
           d="M 79.285,-233.148 V -85.75" /></g><path
         id="path58"
         style="fill:#ffcc66;fill-opacity:0.4;fill-rule:nonzero;stroke:none"
         d="M 130.109,117.129 H 107.43 v 45.355 h 22.679 z m 0,0 H 107.43 l 17.461,-17.461 h 22.679 z" /><g
         transform="scale(1,-1)"
         id="g60"><path
           id="path62"
           style="fill:none;stroke:#000000;stroke-width:0.3985;stroke-linecap:butt;stroke-linejoin:miter;stroke-miterlimit:10;stroke-dasharray:none;stroke-opacity:1"
           d="M 130.109,-117.129 H 107.43 v -45.355 h 22.679 z m 0,0 H 107.43 l 17.461,17.461 h 22.679 z" /></g><g
         transform="scale(1,-1)"
         id="g64"><path
           id="path66"
           style="fill:none;stroke:#000000;stroke-width:0.3985;stroke-linecap:butt;stroke-linejoin:miter;stroke-miterlimit:10;stroke-dasharray:2.98883, 1.99255;stroke-dashoffset:0;stroke-opacity:0.7"
           d="M 147.57,-145.023 H 124.891" /></g><g
         transform="scale(1,-1)"
         id="g68"><path
           id="path70"
           style="fill:none;stroke:#000000;stroke-width:0.3985;stroke-linecap:butt;stroke-linejoin:miter;stroke-miterlimit:10;stroke-dasharray:2.98883, 1.99255;stroke-dashoffset:0;stroke-opacity:0.7"
           d="m 107.43,-162.484 17.461,17.461" /></g><g
         transform="scale(1,-1)"
         id="g72"><path
           id="path74"
           style="fill:none;stroke:#000000;stroke-width:0.3985;stroke-linecap:butt;stroke-linejoin:miter;stroke-miterlimit:10;stroke-dasharray:2.98883, 1.99255;stroke-dashoffset:0;stroke-opacity:0.7"
           d="m 124.891,-99.668 v -45.355" /></g><g
         transform="scale(1,-1)"
         id="g76"><path
           id="path78"
           style="fill:none;stroke:#000000;stroke-width:0.3985;stroke-linecap:butt;stroke-linejoin:miter;stroke-miterlimit:10;stroke-dasharray:none;stroke-opacity:1"
           d="m 107.43,-162.484 h 22.679" /></g><text
         id="text82"
         style="font-variant:normal;font-weight:normal;font-size:9.9626px;font-family:cmr10;-inkscape-font-specification:cmr10;writing-mode:lr-tb;fill:#000000;fill-opacity:1;fill-rule:nonzero;stroke:none"
         transform="translate(113.78883,172.42335)"><tspan
           id="tspan80"
           sodipodi:role="line"
           y="0"
           x="0 4.9812999">16</tspan></text><path
         id="path84"
         style="fill:#ffcc66;fill-opacity:0.4;fill-rule:nonzero;stroke:none"
         d="M 130.109,117.129 147.57,99.668 v 45.355 l -17.461,17.461 z" /><g
         transform="scale(1,-1)"
         id="g86"><path
           id="path88"
           style="fill:none;stroke:#000000;stroke-width:0.3985;stroke-linecap:butt;stroke-linejoin:miter;stroke-miterlimit:10;stroke-dasharray:none;stroke-opacity:1"
           d="m 130.109,-117.129 17.461,17.461 v -45.355 l -17.461,-17.461 z" /></g><g
         transform="scale(1,-1)"
         id="g90"><path
           id="path92"
           style="fill:none;stroke:#000000;stroke-width:0.3985;stroke-linecap:butt;stroke-linejoin:miter;stroke-miterlimit:10;stroke-dasharray:none;stroke-opacity:1"
           d="m 130.109,-162.484 17.461,17.461" /></g><text
         id="text96"
         style="font-variant:normal;font-weight:normal;font-size:8.96657px;font-family:cmr10;-inkscape-font-specification:cmr10;writing-mode:lr-tb;fill:#000000;fill-opacity:1;fill-rule:nonzero;stroke:none"
         transform="rotate(-44.998378,267.3859,-92.624324)"><tspan
           id="tspan94"
           sodipodi:role="line"
           y="0"
           x="0 4.6088157">40</tspan></text><g
         transform="scale(1,-1)"
         id="g98"><path
           id="path100"
           style="fill:none;stroke:#000000;stroke-width:0.3985;stroke-linecap:butt;stroke-linejoin:miter;stroke-miterlimit:10;stroke-dasharray:none;stroke-opacity:1"
           d="m 107.43,-162.484 v 45.355" /></g><path
         id="path102"
         style="fill:#c40000;fill-opacity:0.5;fill-rule:nonzero;stroke:none"
         d="m 157.152,124.102 h -22.679 v 22.675 h 22.679 z m 0,0 h -22.679 l 8.73,-8.731 h 22.68 z" /><g
         transform="scale(1,-1)"
         id="g104"><path
           id="path106"
           style="fill:none;stroke:#000000;stroke-width:0.3985;stroke-linecap:butt;stroke-linejoin:miter;stroke-miterlimit:10;stroke-dasharray:none;stroke-opacity:1"
           d="m 157.152,-124.102 h -22.679 v -22.675 h 22.679 z m 0,0 h -22.679 l 8.73,8.731 h 22.68 z" /></g><g
         transform="scale(1,-1)"
         id="g108"><path
           id="path110"
           style="fill:none;stroke:#000000;stroke-width:0.3985;stroke-linecap:butt;stroke-linejoin:miter;stroke-miterlimit:10;stroke-dasharray:2.98883, 1.99255;stroke-dashoffset:0;stroke-opacity:0.7"
           d="m 165.883,-138.047 h -22.68" /></g><g
         transform="scale(1,-1)"
         id="g112"><path
           id="path114"
           style="fill:none;stroke:#000000;stroke-width:0.3985;stroke-linecap:butt;stroke-linejoin:miter;stroke-miterlimit:10;stroke-dasharray:2.98883, 1.99255;stroke-dashoffset:0;stroke-opacity:0.7"
           d="m 134.473,-146.777 8.73,8.73" /></g><g
         transform="scale(1,-1)"
         id="g116"><path
           id="path118"
           style="fill:none;stroke:#000000;stroke-width:0.3985;stroke-linecap:butt;stroke-linejoin:miter;stroke-miterlimit:10;stroke-dasharray:2.98883, 1.99255;stroke-dashoffset:0;stroke-opacity:0.7"
           d="m 143.203,-115.371 v -22.676" /></g><g
         transform="scale(1,-1)"
         id="g120"><path
           id="path122"
           style="fill:none;stroke:#000000;stroke-width:0.3985;stroke-linecap:butt;stroke-linejoin:miter;stroke-miterlimit:10;stroke-dasharray:none;stroke-opacity:1"
           d="m 134.473,-146.777 h 22.679" /></g><path
         id="path124"
         style="fill:#c40000;fill-opacity:0.5;fill-rule:nonzero;stroke:none"
         d="m 157.152,124.102 8.731,-8.731 v 22.676 l -8.731,8.73 z" /><g
         transform="scale(1,-1)"
         id="g126"><path
           id="path128"
           style="fill:none;stroke:#000000;stroke-width:0.3985;stroke-linecap:butt;stroke-linejoin:miter;stroke-miterlimit:10;stroke-dasharray:none;stroke-opacity:1"
           d="m 157.152,-124.102 8.731,8.731 v -22.676 l -8.731,-8.73 z" /></g><g
         transform="scale(1,-1)"
         id="g130"><path
           id="path132"
           style="fill:none;stroke:#000000;stroke-width:0.3985;stroke-linecap:butt;stroke-linejoin:miter;stroke-miterlimit:10;stroke-dasharray:none;stroke-opacity:1"
           d="m 157.152,-146.777 8.731,8.73" /></g><g
         transform="scale(1,-1)"
         id="g134"><path
           id="path136"
           style="fill:none;stroke:#000000;stroke-width:0.3985;stroke-linecap:butt;stroke-linejoin:miter;stroke-miterlimit:10;stroke-dasharray:none;stroke-opacity:1"
           d="m 134.473,-146.777 v 22.675" /></g><path
         id="path138"
         style="fill:#ffcc66;fill-opacity:0.4;fill-rule:nonzero;stroke:none"
         d="m 200.762,125.844 h -39.684 v 17.008 h 39.684 z m 0,0 h -39.684 l 6.547,-6.547 h 39.684 z" /><g
         transform="scale(1,-1)"
         id="g140"><path
           id="path142"
           style="fill:none;stroke:#000000;stroke-width:0.3985;stroke-linecap:butt;stroke-linejoin:miter;stroke-miterlimit:10;stroke-dasharray:none;stroke-opacity:1"
           d="m 200.762,-125.844 h -39.684 v -17.008 h 39.684 z m 0,0 h -39.684 l 6.547,6.547 h 39.684 z" /></g><g
         transform="scale(1,-1)"
         id="g144"><path
           id="path146"
           style="fill:none;stroke:#000000;stroke-width:0.3985;stroke-linecap:butt;stroke-linejoin:miter;stroke-miterlimit:10;stroke-dasharray:2.98883, 1.99255;stroke-dashoffset:0;stroke-opacity:0.7"
           d="M 207.309,-136.305 H 167.625" /></g><g
         transform="scale(1,-1)"
         id="g148"><path
           id="path150"
           style="fill:none;stroke:#000000;stroke-width:0.3985;stroke-linecap:butt;stroke-linejoin:miter;stroke-miterlimit:10;stroke-dasharray:2.98883, 1.99255;stroke-dashoffset:0;stroke-opacity:0.7"
           d="m 161.078,-142.852 6.547,6.547" /></g><g
         transform="scale(1,-1)"
         id="g152"><path
           id="path154"
           style="fill:none;stroke:#000000;stroke-width:0.3985;stroke-linecap:butt;stroke-linejoin:miter;stroke-miterlimit:10;stroke-dasharray:2.98883, 1.99255;stroke-dashoffset:0;stroke-opacity:0.7"
           d="m 167.625,-119.297 v -17.008" /></g><g
         transform="scale(1,-1)"
         id="g156"><path
           id="path158"
           style="fill:none;stroke:#000000;stroke-width:0.3985;stroke-linecap:butt;stroke-linejoin:miter;stroke-miterlimit:10;stroke-dasharray:none;stroke-opacity:1"
           d="m 161.078,-142.852 h 39.684" /></g><text
         id="text162"
         style="font-variant:normal;font-weight:normal;font-size:9.9626px;font-family:cmr10;-inkscape-font-specification:cmr10;writing-mode:lr-tb;fill:#000000;fill-opacity:1;fill-rule:nonzero;stroke:none"
         transform="translate(175.93683,152.79335)"><tspan
           id="tspan160"
           sodipodi:role="line"
           y="0"
           x="0 4.9812999">32</tspan></text><path
         id="path164"
         style="fill:#ffcc66;fill-opacity:0.4;fill-rule:nonzero;stroke:none"
         d="m 200.762,125.844 6.547,-6.547 v 17.008 l -6.547,6.547 z" /><g
         transform="scale(1,-1)"
         id="g166"><path
           id="path168"
           style="fill:none;stroke:#000000;stroke-width:0.3985;stroke-linecap:butt;stroke-linejoin:miter;stroke-miterlimit:10;stroke-dasharray:none;stroke-opacity:1"
           d="m 200.762,-125.844 6.547,6.547 v -17.008 l -6.547,-6.547 z" /></g><g
         transform="scale(1,-1)"
         id="g170"><path
           id="path172"
           style="fill:none;stroke:#000000;stroke-width:0.3985;stroke-linecap:butt;stroke-linejoin:miter;stroke-miterlimit:10;stroke-dasharray:none;stroke-opacity:1"
           d="m 200.762,-142.852 6.547,6.547" /></g><text
         id="text176"
         style="font-variant:normal;font-weight:normal;font-size:8.96631px;font-family:cmr10;-inkscape-font-specification:cmr10;writing-mode:lr-tb;fill:#000000;fill-opacity:1;fill-rule:nonzero;stroke:none"
         transform="rotate(-45,282.2827,-179.8118)"><tspan
           id="tspan174"
           sodipodi:role="line"
           y="0"
           x="0 4.608685">15</tspan></text><g
         transform="scale(1,-1)"
         id="g178"><path
           id="path180"
           style="fill:none;stroke:#000000;stroke-width:0.3985;stroke-linecap:butt;stroke-linejoin:miter;stroke-miterlimit:10;stroke-dasharray:none;stroke-opacity:1"
           d="m 161.078,-142.852 v 17.008" /></g><path
         id="path182"
         style="fill:#c40000;fill-opacity:0.5;fill-rule:nonzero;stroke:none"
         d="m 241.539,127.59 h -39.687 v 11.336 h 39.687 z m 0,0 h -39.687 l 4.367,-4.367 h 39.683 z" /><g
         transform="scale(1,-1)"
         id="g184"><path
           id="path186"
           style="fill:none;stroke:#000000;stroke-width:0.3985;stroke-linecap:butt;stroke-linejoin:miter;stroke-miterlimit:10;stroke-dasharray:none;stroke-opacity:1"
           d="m 241.539,-127.59 h -39.687 v -11.336 h 39.687 z m 0,0 h -39.687 l 4.367,4.367 h 39.683 z" /></g><g
         transform="scale(1,-1)"
         id="g188"><path
           id="path190"
           style="fill:none;stroke:#000000;stroke-width:0.3985;stroke-linecap:butt;stroke-linejoin:miter;stroke-miterlimit:10;stroke-dasharray:2.98883, 1.99255;stroke-dashoffset:0;stroke-opacity:0.7"
           d="M 245.902,-134.562 H 206.219" /></g><g
         transform="scale(1,-1)"
         id="g192"><path
           id="path194"
           style="fill:none;stroke:#000000;stroke-width:0.3985;stroke-linecap:butt;stroke-linejoin:miter;stroke-miterlimit:10;stroke-dasharray:2.98883, 1.99255;stroke-dashoffset:0;stroke-opacity:0.7"
           d="m 201.852,-138.926 4.367,4.364" /></g><g
         transform="scale(1,-1)"
         id="g196"><path
           id="path198"
           style="fill:none;stroke:#000000;stroke-width:0.3985;stroke-linecap:butt;stroke-linejoin:miter;stroke-miterlimit:10;stroke-dasharray:2.98883, 1.99255;stroke-dashoffset:0;stroke-opacity:0.7"
           d="m 206.219,-123.223 v -11.339" /></g><g
         transform="scale(1,-1)"
         id="g200"><path
           id="path202"
           style="fill:none;stroke:#000000;stroke-width:0.3985;stroke-linecap:butt;stroke-linejoin:miter;stroke-miterlimit:10;stroke-dasharray:none;stroke-opacity:1"
           d="m 201.852,-138.926 h 39.687" /></g><path
         id="path204"
         style="fill:#c40000;fill-opacity:0.5;fill-rule:nonzero;stroke:none"
         d="m 241.539,127.59 4.363,-4.367 v 11.339 l -4.363,4.364 z" /><g
         transform="scale(1,-1)"
         id="g206"><path
           id="path208"
           style="fill:none;stroke:#000000;stroke-width:0.3985;stroke-linecap:butt;stroke-linejoin:miter;stroke-miterlimit:10;stroke-dasharray:none;stroke-opacity:1"
           d="m 241.539,-127.59 4.363,4.367 v -11.339 l -4.363,-4.364 z" /></g><g
         transform="scale(1,-1)"
         id="g210"><path
           id="path212"
           style="fill:none;stroke:#000000;stroke-width:0.3985;stroke-linecap:butt;stroke-linejoin:miter;stroke-miterlimit:10;stroke-dasharray:none;stroke-opacity:1"
           d="m 241.539,-138.926 4.363,4.364" /></g><g
         transform="scale(1,-1)"
         id="g214"><path
           id="path216"
           style="fill:none;stroke:#000000;stroke-width:0.3985;stroke-linecap:butt;stroke-linejoin:miter;stroke-miterlimit:10;stroke-dasharray:none;stroke-opacity:1"
           d="m 201.852,-138.926 v 11.336" /></g><path
         id="path218"
         style="fill:#ffcc66;fill-opacity:0.4;fill-rule:nonzero;stroke:none"
         d="M 319.164,129.332 H 245.465 V 135 h 73.699 z m 0,0 h -73.699 l 2.183,-2.184 h 73.7 z" /><g
         transform="scale(1,-1)"
         id="g220"><path
           id="path222"
           style="fill:none;stroke:#000000;stroke-width:0.3985;stroke-linecap:butt;stroke-linejoin:miter;stroke-miterlimit:10;stroke-dasharray:none;stroke-opacity:1"
           d="M 319.164,-129.332 H 245.465 V -135 h 73.699 z m 0,0 h -73.699 l 2.183,2.184 h 73.7 z" /></g><g
         transform="scale(1,-1)"
         id="g224"><path
           id="path226"
           style="fill:none;stroke:#000000;stroke-width:0.3985;stroke-linecap:butt;stroke-linejoin:miter;stroke-miterlimit:10;stroke-dasharray:2.98883, 1.99255;stroke-dashoffset:0;stroke-opacity:0.7"
           d="m 321.348,-132.82 h -73.7" /></g><g
         transform="scale(1,-1)"
         id="g228"><path
           id="path230"
           style="fill:none;stroke:#000000;stroke-width:0.3985;stroke-linecap:butt;stroke-linejoin:miter;stroke-miterlimit:10;stroke-dasharray:2.98883, 1.99255;stroke-dashoffset:0;stroke-opacity:0.7"
           d="m 245.465,-135 2.183,2.18" /></g><g
         transform="scale(1,-1)"
         id="g232"><path
           id="path234"
           style="fill:none;stroke:#000000;stroke-width:0.3985;stroke-linecap:butt;stroke-linejoin:miter;stroke-miterlimit:10;stroke-dasharray:2.98883, 1.99255;stroke-dashoffset:0;stroke-opacity:0.7"
           d="m 247.648,-127.148 v -5.672" /></g><g
         transform="scale(1,-1)"
         id="g236"><path
           id="path238"
           style="fill:none;stroke:#000000;stroke-width:0.3985;stroke-linecap:butt;stroke-linejoin:miter;stroke-miterlimit:10;stroke-dasharray:none;stroke-opacity:1"
           d="m 245.465,-135 h 73.699" /></g><text
         id="text242"
         style="font-variant:normal;font-weight:normal;font-size:9.9626px;font-family:cmr10;-inkscape-font-specification:cmr10;writing-mode:lr-tb;fill:#000000;fill-opacity:1;fill-rule:nonzero;stroke:none"
         transform="translate(277.33083,144.94136)"><tspan
           id="tspan240"
           sodipodi:role="line"
           y="0"
           x="0 4.9812999">64</tspan></text><path
         id="path244"
         style="fill:#ffcc66;fill-opacity:0.4;fill-rule:nonzero;stroke:none"
         d="m 319.164,129.332 2.184,-2.184 v 5.672 l -2.184,2.18 z" /><g
         transform="scale(1,-1)"
         id="g246"><path
           id="path248"
           style="fill:none;stroke:#000000;stroke-width:0.3985;stroke-linecap:butt;stroke-linejoin:miter;stroke-miterlimit:10;stroke-dasharray:none;stroke-opacity:1"
           d="m 319.164,-129.332 2.184,2.184 v -5.672 l -2.184,-2.18 z" /></g><g
         transform="scale(1,-1)"
         id="g250"><path
           id="path252"
           style="fill:none;stroke:#000000;stroke-width:0.3985;stroke-linecap:butt;stroke-linejoin:miter;stroke-miterlimit:10;stroke-dasharray:none;stroke-opacity:1"
           d="m 319.164,-135 2.184,2.18" /></g><text
         id="text256"
         style="font-variant:normal;font-weight:normal;font-size:8.96657px;font-family:cmr10;-inkscape-font-specification:cmr10;writing-mode:lr-tb;fill:#000000;fill-opacity:1;fill-rule:nonzero;stroke:none"
         transform="rotate(-44.998378,332.01293,-326.67581)"><tspan
           id="tspan254"
           y="0"
           x="0">5</tspan></text><g
         transform="scale(1,-1)"
         id="g258"><path
           id="path260"
           style="fill:none;stroke:#000000;stroke-width:0.3985;stroke-linecap:butt;stroke-linejoin:miter;stroke-miterlimit:10;stroke-dasharray:none;stroke-opacity:1"
           d="m 245.465,-135 v 5.668" /></g><path
         id="path262"
         style="fill:#c40000;fill-opacity:0.5;fill-rule:nonzero;stroke:none"
         d="M 392.867,129.332 H 319.164 V 135 h 73.703 z m 0,0 h -73.703 l 2.184,-2.184 h 73.699 z" /><g
         transform="scale(1,-1)"
         id="g264"><path
           id="path266"
           style="fill:none;stroke:#000000;stroke-width:0.3985;stroke-linecap:butt;stroke-linejoin:miter;stroke-miterlimit:10;stroke-dasharray:none;stroke-opacity:1"
           d="M 392.867,-129.332 H 319.164 V -135 h 73.703 z m 0,0 h -73.703 l 2.184,2.184 h 73.699 z" /></g><g
         transform="scale(1,-1)"
         id="g268"><path
           id="path270"
           style="fill:none;stroke:#000000;stroke-width:0.3985;stroke-linecap:butt;stroke-linejoin:miter;stroke-miterlimit:10;stroke-dasharray:2.98883, 1.99255;stroke-dashoffset:0;stroke-opacity:0.7"
           d="M 395.047,-132.82 H 321.348" /></g><g
         transform="scale(1,-1)"
         id="g272"><path
           id="path274"
           style="fill:none;stroke:#000000;stroke-width:0.3985;stroke-linecap:butt;stroke-linejoin:miter;stroke-miterlimit:10;stroke-dasharray:2.98883, 1.99255;stroke-dashoffset:0;stroke-opacity:0.7"
           d="m 319.164,-135 2.184,2.18" /></g><g
         transform="scale(1,-1)"
         id="g276"><path
           id="path278"
           style="fill:none;stroke:#000000;stroke-width:0.3985;stroke-linecap:butt;stroke-linejoin:miter;stroke-miterlimit:10;stroke-dasharray:2.98883, 1.99255;stroke-dashoffset:0;stroke-opacity:0.7"
           d="m 321.348,-127.148 v -5.672" /></g><g
         transform="scale(1,-1)"
         id="g280"><path
           id="path282"
           style="fill:none;stroke:#000000;stroke-width:0.3985;stroke-linecap:butt;stroke-linejoin:miter;stroke-miterlimit:10;stroke-dasharray:none;stroke-opacity:1"
           d="m 319.164,-135 h 73.703" /></g><path
         id="path284"
         style="fill:#c40000;fill-opacity:0.5;fill-rule:nonzero;stroke:none"
         d="m 392.867,129.332 2.18,-2.184 v 5.672 l -2.18,2.18 z" /><g
         transform="scale(1,-1)"
         id="g286"><path
           id="path288"
           style="fill:none;stroke:#000000;stroke-width:0.3985;stroke-linecap:butt;stroke-linejoin:miter;stroke-miterlimit:10;stroke-dasharray:none;stroke-opacity:1"
           d="m 392.867,-129.332 2.18,2.184 v -5.672 l -2.18,-2.18 z" /></g><g
         transform="scale(1,-1)"
         id="g290"><path
           id="path292"
           style="fill:none;stroke:#000000;stroke-width:0.3985;stroke-linecap:butt;stroke-linejoin:miter;stroke-miterlimit:10;stroke-dasharray:none;stroke-opacity:1"
           d="m 392.867,-135 2.18,2.18" /></g><g
         transform="scale(1,-1)"
         id="g294"><path
           id="path296"
           style="fill:none;stroke:#000000;stroke-width:0.3985;stroke-linecap:butt;stroke-linejoin:miter;stroke-miterlimit:10;stroke-dasharray:none;stroke-opacity:1"
           d="m 319.164,-135 v 5.668" /></g><path
         id="path298"
         style="fill:#6a006a;fill-opacity:0.8;fill-rule:nonzero;stroke:none"
         d="m 361.43,166.438 h -5.668 v 5.667 h 5.668 z m 0,0 h -5.668 l 76.39,-76.395 h 5.668 z" /><g
         transform="scale(1,-1)"
         id="g300"><path
           id="path302"
           style="fill:none;stroke:#000000;stroke-width:0.3985;stroke-linecap:butt;stroke-linejoin:miter;stroke-miterlimit:10;stroke-dasharray:none;stroke-opacity:1"
           d="m 361.43,-166.438 h -5.668 v -5.667 h 5.668 z m 0,0 h -5.668 l 76.39,76.395 h 5.668 z" /></g><g
         transform="scale(1,-1)"
         id="g304"><path
           id="path306"
           style="fill:none;stroke:#000000;stroke-width:0.3985;stroke-linecap:butt;stroke-linejoin:miter;stroke-miterlimit:10;stroke-dasharray:2.98883, 1.99255;stroke-dashoffset:0;stroke-opacity:0.7"
           d="m 437.82,-95.715 h -5.668" /></g><g
         transform="scale(1,-1)"
         id="g308"><path
           id="path310"
           style="fill:none;stroke:#000000;stroke-width:0.3985;stroke-linecap:butt;stroke-linejoin:miter;stroke-miterlimit:10;stroke-dasharray:2.98883, 1.99255;stroke-dashoffset:0;stroke-opacity:0.7"
           d="m 355.762,-172.105 76.39,76.39" /></g><g
         transform="scale(1,-1)"
         id="g312"><path
           id="path314"
           style="fill:none;stroke:#000000;stroke-width:0.3985;stroke-linecap:butt;stroke-linejoin:miter;stroke-miterlimit:10;stroke-dasharray:2.98883, 1.99255;stroke-dashoffset:0;stroke-opacity:0.7"
           d="m 432.152,-90.043 v -5.672" /></g><g
         transform="scale(1,-1)"
         id="g316"><path
           id="path318"
           style="fill:none;stroke:#000000;stroke-width:0.3985;stroke-linecap:butt;stroke-linejoin:miter;stroke-miterlimit:10;stroke-dasharray:none;stroke-opacity:1"
           d="m 355.762,-172.105 h 5.668" /></g><path
         id="path320"
         style="fill:#6a006a;fill-opacity:0.8;fill-rule:nonzero;stroke:none"
         d="m 361.43,166.438 76.39,-76.395 v 5.672 l -76.39,76.39 z" /><g
         transform="scale(1,-1)"
         id="g322"><path
           id="path324"
           style="fill:none;stroke:#000000;stroke-width:0.3985;stroke-linecap:butt;stroke-linejoin:miter;stroke-miterlimit:10;stroke-dasharray:none;stroke-opacity:1"
           d="m 361.43,-166.438 76.39,76.395 v -5.672 l -76.39,-76.39 z" /></g><g
         transform="scale(1,-1)"
         id="g326"><path
           id="path328"
           style="fill:none;stroke:#000000;stroke-width:0.3985;stroke-linecap:butt;stroke-linejoin:miter;stroke-miterlimit:10;stroke-dasharray:none;stroke-opacity:1"
           d="m 361.43,-172.105 76.39,76.39" /></g><text
         id="text332"
         style="font-variant:normal;font-weight:normal;font-size:8.96625px;font-family:cmr10;-inkscape-font-specification:cmr10;writing-mode:lr-tb;fill:#000000;fill-opacity:1;fill-rule:nonzero;stroke:none"
         transform="rotate(-45.000402,376.97243,-409.70313)"><tspan
           id="tspan330"
           sodipodi:role="line"
           y="0"
           x="0 4.6086526 9.2173052">256</tspan></text><g
         transform="scale(1,-1)"
         id="g334"><path
           id="path336"
           style="fill:none;stroke:#000000;stroke-width:0.3985;stroke-linecap:butt;stroke-linejoin:miter;stroke-miterlimit:10;stroke-dasharray:none;stroke-opacity:1"
           d="m 355.762,-172.105 v 5.667" /></g><path
         id="path338"
         style="fill:#6a006a;fill-opacity:0.8;fill-rule:nonzero;stroke:none"
         d="m 408.328,147.883 h -5.668 v 5.672 h 5.668 z m 0,0 h -5.668 l 39.289,-39.285 h 5.668 z" /><g
         transform="scale(1,-1)"
         id="g340"><path
           id="path342"
           style="fill:none;stroke:#000000;stroke-width:0.3985;stroke-linecap:butt;stroke-linejoin:miter;stroke-miterlimit:10;stroke-dasharray:none;stroke-opacity:1"
           d="m 408.328,-147.883 h -5.668 v -5.672 h 5.668 z m 0,0 h -5.668 l 39.289,39.285 h 5.668 z" /></g><g
         transform="scale(1,-1)"
         id="g344"><path
           id="path346"
           style="fill:none;stroke:#000000;stroke-width:0.3985;stroke-linecap:butt;stroke-linejoin:miter;stroke-miterlimit:10;stroke-dasharray:2.98883, 1.99255;stroke-dashoffset:0;stroke-opacity:0.7"
           d="m 447.617,-114.266 h -5.668" /></g><g
         transform="scale(1,-1)"
         id="g348"><path
           id="path350"
           style="fill:none;stroke:#000000;stroke-width:0.3985;stroke-linecap:butt;stroke-linejoin:miter;stroke-miterlimit:10;stroke-dasharray:2.98883, 1.99255;stroke-dashoffset:0;stroke-opacity:0.7"
           d="m 402.66,-153.555 39.289,39.289" /></g><g
         transform="scale(1,-1)"
         id="g352"><path
           id="path354"
           style="fill:none;stroke:#000000;stroke-width:0.3985;stroke-linecap:butt;stroke-linejoin:miter;stroke-miterlimit:10;stroke-dasharray:2.98883, 1.99255;stroke-dashoffset:0;stroke-opacity:0.7"
           d="m 441.949,-108.598 v -5.668" /></g><g
         transform="scale(1,-1)"
         id="g356"><path
           id="path358"
           style="fill:none;stroke:#000000;stroke-width:0.3985;stroke-linecap:butt;stroke-linejoin:miter;stroke-miterlimit:10;stroke-dasharray:none;stroke-opacity:1"
           d="m 402.66,-153.555 h 5.668" /></g><path
         id="path360"
         style="fill:#6a006a;fill-opacity:0.8;fill-rule:nonzero;stroke:none"
         d="m 408.328,147.883 39.289,-39.285 v 5.668 l -39.289,39.289 z" /><g
         transform="scale(1,-1)"
         id="g362"><path
           id="path364"
           style="fill:none;stroke:#000000;stroke-width:0.3985;stroke-linecap:butt;stroke-linejoin:miter;stroke-miterlimit:10;stroke-dasharray:none;stroke-opacity:1"
           d="m 408.328,-147.883 39.289,39.285 v -5.668 l -39.289,-39.289 z" /></g><g
         transform="scale(1,-1)"
         id="g366"><path
           id="path368"
           style="fill:none;stroke:#000000;stroke-width:0.3985;stroke-linecap:butt;stroke-linejoin:miter;stroke-miterlimit:10;stroke-dasharray:none;stroke-opacity:1"
           d="m 408.328,-153.555 39.289,39.289" /></g><text
         id="text372"
         style="font-variant:normal;font-weight:normal;font-size:8.96625px;font-family:cmr10;-inkscape-font-specification:cmr10;writing-mode:lr-tb;fill:#000000;fill-opacity:1;fill-rule:nonzero;stroke:none"
         transform="rotate(-45.000402,389.88321,-446.96972)"><tspan
           id="tspan370"
           sodipodi:role="line"
           y="0"
           x="0 4.6086526 9.2173052">128</tspan></text><g
         transform="scale(1,-1)"
         id="g374"><path
           id="path376"
           style="fill:none;stroke:#000000;stroke-width:0.3985;stroke-linecap:butt;stroke-linejoin:miter;stroke-miterlimit:10;stroke-dasharray:none;stroke-opacity:1"
           d="m 402.66,-153.555 v 5.672" /></g><path
         id="path378"
         style="fill:#6a006a;fill-opacity:0.8;fill-rule:nonzero;stroke:none"
         d="m 446.496,138.062 h -5.668 v 5.668 h 5.668 z m 0,0 h -5.668 l 19.645,-19.644 h 5.668 z" /><g
         transform="scale(1,-1)"
         id="g380"><path
           id="path382"
           style="fill:none;stroke:#000000;stroke-width:0.3985;stroke-linecap:butt;stroke-linejoin:miter;stroke-miterlimit:10;stroke-dasharray:none;stroke-opacity:1"
           d="m 446.496,-138.062 h -5.668 v -5.668 h 5.668 z m 0,0 h -5.668 l 19.645,19.644 h 5.668 z" /></g><g
         transform="scale(1,-1)"
         id="g384"><path
           id="path386"
           style="fill:none;stroke:#000000;stroke-width:0.3985;stroke-linecap:butt;stroke-linejoin:miter;stroke-miterlimit:10;stroke-dasharray:2.98883, 1.99255;stroke-dashoffset:0;stroke-opacity:0.7"
           d="m 466.141,-124.09 h -5.668" /></g><g
         transform="scale(1,-1)"
         id="g388"><path
           id="path390"
           style="fill:none;stroke:#000000;stroke-width:0.3985;stroke-linecap:butt;stroke-linejoin:miter;stroke-miterlimit:10;stroke-dasharray:2.98883, 1.99255;stroke-dashoffset:0;stroke-opacity:0.7"
           d="m 440.828,-143.73 19.645,19.64" /></g><g
         transform="scale(1,-1)"
         id="g392"><path
           id="path394"
           style="fill:none;stroke:#000000;stroke-width:0.3985;stroke-linecap:butt;stroke-linejoin:miter;stroke-miterlimit:10;stroke-dasharray:2.98883, 1.99255;stroke-dashoffset:0;stroke-opacity:0.7"
           d="m 460.473,-118.418 v -5.672" /></g><g
         transform="scale(1,-1)"
         id="g396"><path
           id="path398"
           style="fill:none;stroke:#000000;stroke-width:0.3985;stroke-linecap:butt;stroke-linejoin:miter;stroke-miterlimit:10;stroke-dasharray:none;stroke-opacity:1"
           d="m 440.828,-143.73 h 5.668" /></g><path
         id="path400"
         style="fill:#6a006a;fill-opacity:0.8;fill-rule:nonzero;stroke:none"
         d="m 446.496,138.062 19.645,-19.644 v 5.672 l -19.645,19.64 z" /><g
         transform="scale(1,-1)"
         id="g402"><path
           id="path404"
           style="fill:none;stroke:#000000;stroke-width:0.3985;stroke-linecap:butt;stroke-linejoin:miter;stroke-miterlimit:10;stroke-dasharray:none;stroke-opacity:1"
           d="m 446.496,-138.062 19.645,19.644 v -5.672 l -19.645,-19.64 z" /></g><g
         transform="scale(1,-1)"
         id="g406"><path
           id="path408"
           style="fill:none;stroke:#000000;stroke-width:0.3985;stroke-linecap:butt;stroke-linejoin:miter;stroke-miterlimit:10;stroke-dasharray:none;stroke-opacity:1"
           d="m 446.496,-143.73 19.645,19.64" /></g><text
         id="text412"
         style="font-variant:normal;font-weight:normal;font-size:8.96631px;font-family:cmr10;-inkscape-font-specification:cmr10;writing-mode:lr-tb;fill:#000000;fill-opacity:1;fill-rule:nonzero;stroke:none"
         transform="rotate(-45,402.23728,-485.58742)"><tspan
           id="tspan410"
           sodipodi:role="line"
           y="0"
           x="0 4.608685">64</tspan></text><g
         transform="scale(1,-1)"
         id="g414"><path
           id="path416"
           style="fill:none;stroke:#000000;stroke-width:0.3985;stroke-linecap:butt;stroke-linejoin:miter;stroke-miterlimit:10;stroke-dasharray:none;stroke-opacity:1"
           d="m 440.828,-143.73 v 5.668" /></g><path
         id="path418"
         style="fill:#6a006a;fill-opacity:0.8;fill-rule:nonzero;stroke:none"
         d="m 483.574,129.332 h -5.668 V 135 h 5.668 z m 0,0 h -5.668 l 2.184,-2.184 h 5.668 z" /><g
         transform="scale(1,-1)"
         id="g420"><path
           id="path422"
           style="fill:none;stroke:#000000;stroke-width:0.3985;stroke-linecap:butt;stroke-linejoin:miter;stroke-miterlimit:10;stroke-dasharray:none;stroke-opacity:1"
           d="m 483.574,-129.332 h -5.668 V -135 h 5.668 z m 0,0 h -5.668 l 2.184,2.184 h 5.668 z" /></g><g
         transform="scale(1,-1)"
         id="g424"><path
           id="path426"
           style="fill:none;stroke:#000000;stroke-width:0.3985;stroke-linecap:butt;stroke-linejoin:miter;stroke-miterlimit:10;stroke-dasharray:2.98883, 1.99255;stroke-dashoffset:0;stroke-opacity:0.7"
           d="M 485.758,-132.82 H 480.09" /></g><g
         transform="scale(1,-1)"
         id="g428"><path
           id="path430"
           style="fill:none;stroke:#000000;stroke-width:0.3985;stroke-linecap:butt;stroke-linejoin:miter;stroke-miterlimit:10;stroke-dasharray:2.98883, 1.99255;stroke-dashoffset:0;stroke-opacity:0.7"
           d="m 477.906,-135 2.184,2.18" /></g><g
         transform="scale(1,-1)"
         id="g432"><path
           id="path434"
           style="fill:none;stroke:#000000;stroke-width:0.3985;stroke-linecap:butt;stroke-linejoin:miter;stroke-miterlimit:10;stroke-dasharray:2.98883, 1.99255;stroke-dashoffset:0;stroke-opacity:0.7"
           d="m 480.09,-127.148 v -5.672" /></g><g
         transform="scale(1,-1)"
         id="g436"><path
           id="path438"
           style="fill:none;stroke:#000000;stroke-width:0.3985;stroke-linecap:butt;stroke-linejoin:miter;stroke-miterlimit:10;stroke-dasharray:none;stroke-opacity:1"
           d="m 477.906,-135 h 5.668" /></g><path
         id="path440"
         style="fill:#6a006a;fill-opacity:0.8;fill-rule:nonzero;stroke:none"
         d="m 483.574,129.332 2.184,-2.184 v 5.672 l -2.184,2.18 z" /><g
         transform="scale(1,-1)"
         id="g442"><path
           id="path444"
           style="fill:none;stroke:#000000;stroke-width:0.3985;stroke-linecap:butt;stroke-linejoin:miter;stroke-miterlimit:10;stroke-dasharray:none;stroke-opacity:1"
           d="m 483.574,-129.332 2.184,2.184 v -5.672 l -2.184,-2.18 z" /></g><g
         transform="scale(1,-1)"
         id="g446"><path
           id="path448"
           style="fill:none;stroke:#000000;stroke-width:0.3985;stroke-linecap:butt;stroke-linejoin:miter;stroke-miterlimit:10;stroke-dasharray:none;stroke-opacity:1"
           d="m 483.574,-135 2.184,2.18" /></g><text
         id="text452"
         style="font-variant:normal;font-weight:normal;font-size:8.96657px;font-family:cmr10;-inkscape-font-specification:cmr10;writing-mode:lr-tb;fill:#000000;fill-opacity:1;fill-rule:nonzero;stroke:none"
         transform="rotate(-44.998378,414.21692,-525.14176)"><tspan
           id="tspan450"
           y="0"
           x="0">4</tspan></text><g
         transform="scale(1,-1)"
         id="g454"><path
           id="path456"
           style="fill:none;stroke:#000000;stroke-width:0.3985;stroke-linecap:butt;stroke-linejoin:miter;stroke-miterlimit:10;stroke-dasharray:none;stroke-opacity:1"
           d="m 477.906,-135 v 5.668" /></g><path
         id="path458"
         style="fill:#000000;fill-opacity:1;fill-rule:nonzero;stroke:none"
         d="m 539.621,123.441 h -14.383 v 1.184 h 2.719 v 14.738 h -2.719 v 1.18 c 0.946,-0.078 3.508,-0.078 4.61,-0.078 1.222,0 3.941,0 5.086,0.078 v -1.18 h -3.43 v -14.738 h 2.914 c 3.98,0 4.453,1.93 4.809,4.887 h 1.183 z" /><path
         id="path460"
         style="fill:#000000;fill-opacity:1;fill-rule:nonzero;stroke:none"
         d="m 547.859,118.262 c -3.312,2.324 -4.218,6.07 -4.218,8.75 0,2.48 0.75,6.343 4.218,8.785 0.157,0 0.356,0 0.356,-0.195 0,-0.118 -0.039,-0.157 -0.16,-0.278 -2.364,-2.125 -3.192,-5.082 -3.192,-8.273 0,-4.77 1.813,-7.094 3.231,-8.395 0.082,-0.078 0.121,-0.117 0.121,-0.195 0,-0.199 -0.199,-0.199 -0.356,-0.199 z" /><path
         id="path462"
         style="fill:#000000;fill-opacity:1;fill-rule:nonzero;stroke:none"
         d="m 553.816,124.488 h 1.774 c 0.355,0 0.555,0 0.555,-0.394 0,-0.235 -0.2,-0.235 -0.512,-0.235 h -1.656 l 0.628,-2.601 c 0.04,-0.078 0.079,-0.199 0.079,-0.238 0,-0.356 -0.274,-0.59 -0.629,-0.59 -0.434,0 -0.672,0.316 -0.828,0.75 -0.118,0.472 0.117,-0.395 -0.668,2.679 h -1.774 c -0.316,0 -0.555,0 -0.555,0.391 0,0.238 0.2,0.238 0.516,0.238 h 1.652 l -1.023,4.137 c -0.117,0.434 -0.277,1.066 -0.277,1.301 0,1.023 0.906,1.656 1.894,1.656 1.969,0 3.074,-2.445 3.074,-2.68 0,-0.238 -0.238,-0.238 -0.277,-0.238 -0.238,0 -0.238,0.039 -0.394,0.356 -0.473,1.105 -1.379,2.089 -2.325,2.089 -0.394,0 -0.632,-0.238 -0.632,-0.867 0,-0.156 0.082,-0.551 0.121,-0.711 z" /><path
         id="path464"
         style="fill:#000000;fill-opacity:1;fill-rule:nonzero;stroke:none"
         d="m 558.652,118.262 c -0.121,0 -0.316,0 -0.316,0.199 0,0.078 0.039,0.117 0.156,0.273 1.5,1.379 3.192,3.746 3.192,8.278 0,3.664 -1.141,6.461 -3.032,8.156 -0.316,0.316 -0.316,0.316 -0.316,0.434 0,0.078 0.039,0.195 0.195,0.195 0.239,0 1.895,-1.141 3.074,-3.348 0.75,-1.457 1.262,-3.351 1.262,-5.398 0,-2.485 -0.75,-6.344 -4.215,-8.789 z" /><g
         transform="scale(1,-1)"
         id="g466"><path
           id="path468"
           style="fill:none;stroke:#000000;stroke-width:0.75;stroke-linecap:butt;stroke-linejoin:miter;stroke-miterlimit:4;stroke-dasharray:none;stroke-opacity:1"
           d="m 579.176,-186.48 h 46.472" /></g><g
         transform="scale(-1,1)"
         id="g470"><path
           id="path472"
           style="fill:#000000;fill-opacity:1;fill-rule:evenodd;stroke:#000000;stroke-width:0.8;stroke-linecap:butt;stroke-linejoin:miter;stroke-miterlimit:4;stroke-dasharray:none;stroke-opacity:1"
           d="m -618.148,186.48 3,-3 -10.5,3 10.5,3 z" /></g><g
         transform="scale(1,-1)"
         id="g474"><path
           id="path476"
           style="fill:none;stroke:#000000;stroke-width:0.75;stroke-linecap:butt;stroke-linejoin:miter;stroke-miterlimit:4;stroke-dasharray:none;stroke-opacity:1"
           d="m 579.125,-77.18 h 46.469" /></g><g
         transform="scale(-1,1)"
         id="g478"><path
           id="path480"
           style="fill:#000000;fill-opacity:1;fill-rule:evenodd;stroke:#000000;stroke-width:0.8;stroke-linecap:butt;stroke-linejoin:miter;stroke-miterlimit:4;stroke-dasharray:none;stroke-opacity:1"
           d="m -618.094,77.18 3,-3 -10.5,3 10.5,3 z" /></g><g
         transform="scale(1,-1)"
         id="g482"><path
           id="path484"
           style="fill:none;stroke:#000000;stroke-width:0.75;stroke-linecap:butt;stroke-linejoin:miter;stroke-miterlimit:4;stroke-dasharray:none;stroke-opacity:1"
           d="m 570.211,-106.863 -0.859,-47.699" /></g><g
         transform="matrix(0.0180175,-1,-1,-0.0180175,0,0)"
         id="g486"><path
           id="path488"
           style="fill:#000000;fill-opacity:1;fill-rule:evenodd;stroke:#000000;stroke-width:0.79987;stroke-linecap:butt;stroke-linejoin:miter;stroke-miterlimit:4;stroke-dasharray:none;stroke-opacity:1"
           d="m -136.757,-571.952 2.999,-3.001 -10.499,3.002 10.496,2.998 z" /></g><g
         transform="rotate(90)"
         id="g490"><path
           id="path492"
           style="fill:none;stroke:#000000;stroke-width:2.83465;stroke-linecap:butt;stroke-linejoin:miter;stroke-miterlimit:4;stroke-dasharray:none;stroke-opacity:1"
           d="m 107.473,-569.527 c 0,16.757 -13.563,30.347 -30.293,30.347 -16.731,0 -30.293,-13.59 -30.293,-30.347 0,-16.762 13.562,-30.348 30.293,-30.348 16.73,0 30.293,13.586 30.293,30.348 z" /></g><path
         id="path494"
         style="fill:#ffffff;fill-opacity:1;fill-rule:nonzero;stroke:none"
         d="m 569.527,107.473 c -16.757,0 -30.347,-13.563 -30.347,-30.293 0,-16.731 13.59,-30.293 30.347,-30.293 16.762,0 30.348,13.562 30.348,30.293 0,16.73 -13.586,30.293 -30.348,30.293 z" /><path
         id="path496"
         style="fill:#000000;fill-opacity:1;fill-rule:nonzero;stroke:none"
         d="m 569.469,70.938 c -0.719,0.042 -1.27,0.632 -1.27,1.222 0,0.383 0.254,0.805 0.848,0.805 0.59,0 1.223,-0.465 1.223,-1.52 0,-1.226 -1.141,-2.324 -3.211,-2.324 -3.547,0 -4.559,2.746 -4.559,3.926 0,2.113 1.984,2.492 2.785,2.66 1.395,0.297 2.789,0.594 2.789,2.07 0,0.676 -0.59,2.957 -3.844,2.957 -0.378,0 -2.449,0 -3.082,-1.437 1.055,0.129 1.731,-0.676 1.731,-1.434 0,-0.593 -0.465,-0.929 -1.012,-0.929 -0.719,0 -1.519,0.546 -1.519,1.773 0,1.52 1.562,2.617 3.84,2.617 4.394,0 5.449,-3.25 5.449,-4.476 0,-0.969 -0.508,-1.645 -0.844,-1.942 -0.719,-0.761 -1.52,-0.929 -2.703,-1.14 -0.973,-0.211 -2.028,-0.422 -2.028,-1.645 0,-0.762 0.633,-2.41 2.997,-2.41 0.675,0 2.027,0.211 2.41,1.227 z" /><path
         id="path498"
         style="fill:#000000;fill-opacity:1;fill-rule:nonzero;stroke:none"
         d="m 576.219,77.637 h 1.898 c 0.383,0 0.594,0 0.594,-0.426 0,-0.25 -0.211,-0.25 -0.551,-0.25 h -1.773 l 0.675,-2.789 c 0.043,-0.086 0.086,-0.211 0.086,-0.254 0,-0.379 -0.296,-0.633 -0.675,-0.633 -0.465,0 -0.719,0.34 -0.887,0.801 -0.129,0.508 0.125,-0.422 -0.719,2.875 h -1.898 c -0.34,0 -0.594,0 -0.594,0.422 0,0.254 0.211,0.254 0.551,0.254 h 1.773 l -1.097,4.433 c -0.129,0.461 -0.297,1.137 -0.297,1.391 0,1.098 0.972,1.773 2.027,1.773 2.109,0 3.293,-2.617 3.293,-2.871 0,-0.254 -0.254,-0.254 -0.297,-0.254 -0.25,0 -0.25,0.043 -0.422,0.383 -0.504,1.18 -1.476,2.238 -2.488,2.238 -0.426,0 -0.676,-0.253 -0.676,-0.929 0,-0.168 0.082,-0.594 0.125,-0.762 z" /><g
         transform="rotate(90)"
         id="g500"><path
           id="path502"
           style="fill:none;stroke:#000000;stroke-width:2.83465;stroke-linecap:butt;stroke-linejoin:miter;stroke-miterlimit:4;stroke-dasharray:none;stroke-opacity:1"
           d="m 216.773,-569.527 c 0,16.757 -13.562,30.347 -30.293,30.347 -16.73,0 -30.292,-13.59 -30.292,-30.347 0,-16.762 13.562,-30.348 30.292,-30.348 16.731,0 30.293,13.586 30.293,30.348 z" /></g><path
         id="path504"
         style="fill:#ffffff;fill-opacity:1;fill-rule:nonzero;stroke:none"
         d="m 569.527,216.773 c -16.757,0 -30.347,-13.562 -30.347,-30.293 0,-16.73 13.59,-30.292 30.347,-30.292 16.762,0 30.348,13.562 30.348,30.292 0,16.731 -13.586,30.293 -30.348,30.293 z" /><path
         id="path506"
         style="fill:#000000;fill-opacity:1;fill-rule:nonzero;stroke:none"
         d="m 556.25,179.207 c -0.719,0.039 -1.27,0.633 -1.27,1.223 0,0.379 0.254,0.8 0.848,0.8 0.59,0 1.223,-0.46 1.223,-1.519 0,-1.223 -1.141,-2.32 -3.207,-2.32 -3.547,0 -4.563,2.742 -4.563,3.925 0,2.114 1.985,2.493 2.789,2.661 1.391,0.296 2.785,0.589 2.785,2.07 0,0.676 -0.589,2.957 -3.843,2.957 -0.379,0 -2.45,0 -3.082,-1.438 1.054,0.125 1.73,-0.675 1.73,-1.437 0,-0.59 -0.465,-0.926 -1.012,-0.926 -0.718,0 -1.519,0.547 -1.519,1.774 0,1.519 1.562,2.617 3.84,2.617 4.394,0 5.449,-3.254 5.449,-4.477 0,-0.972 -0.508,-1.648 -0.844,-1.941 -0.719,-0.762 -1.519,-0.93 -2.703,-1.141 -0.973,-0.211 -2.027,-0.422 -2.027,-1.648 0,-0.758 0.633,-2.407 3,-2.407 0.676,0 2.023,0.211 2.406,1.227 z" /><path
         id="path508"
         style="fill:#000000;fill-opacity:1;fill-rule:nonzero;stroke:none"
         d="m 563,185.902 h 1.902 c 0.379,0 0.59,0 0.59,-0.422 0,-0.253 -0.211,-0.253 -0.551,-0.253 h -1.773 l 0.676,-2.786 c 0.043,-0.086 0.086,-0.211 0.086,-0.253 0,-0.379 -0.297,-0.633 -0.676,-0.633 -0.465,0 -0.719,0.336 -0.887,0.8 -0.129,0.508 0.125,-0.421 -0.719,2.872 h -1.898 c -0.34,0 -0.594,0 -0.594,0.421 0,0.254 0.211,0.254 0.551,0.254 h 1.773 l -1.097,4.434 c -0.129,0.465 -0.297,1.141 -0.297,1.394 0,1.098 0.973,1.774 2.027,1.774 2.114,0 3.293,-2.617 3.293,-2.871 0,-0.254 -0.254,-0.254 -0.293,-0.254 -0.254,0 -0.254,0.043 -0.425,0.379 -0.504,1.183 -1.477,2.238 -2.489,2.238 -0.422,0 -0.676,-0.254 -0.676,-0.926 0,-0.172 0.082,-0.593 0.125,-0.761 z" /><path
         id="path510"
         style="fill:#000000;fill-opacity:1;fill-rule:nonzero;stroke:none"
         d="m 575.188,189.07 h 5.785 c 0.254,0 0.675,0 0.675,-0.422 0,-0.507 -0.421,-0.507 -0.675,-0.507 h -5.785 v -5.786 c 0,-0.21 0,-0.675 -0.422,-0.675 -0.465,0 -0.465,0.422 -0.465,0.675 v 5.786 h -5.785 c -0.254,0 -0.715,0 -0.715,0.464 0,0.465 0.422,0.465 0.715,0.465 h 5.785 v 5.785 c 0,0.254 0,0.719 0.422,0.719 0.465,0 0.465,-0.465 0.465,-0.719 z" /><path
         id="path512"
         style="fill:#000000;fill-opacity:1;fill-rule:nonzero;stroke:none"
         d="m 589.309,181.344 c 0,-0.508 0,-0.508 -0.547,-0.508 -1.227,1.184 -2.914,1.184 -3.676,1.184 v 0.675 c 0.426,0 1.691,0 2.703,-0.507 v 9.585 c 0,0.633 0,0.887 -1.855,0.887 h -0.719 v 0.676 c 0.336,0 2.66,-0.086 3.336,-0.086 0.59,0 2.957,0.086 3.379,0.086 v -0.676 h -0.719 c -1.902,0 -1.902,-0.254 -1.902,-0.887 z" /><g
         transform="rotate(90)"
         id="g514"><path
           id="path516"
           style="fill:none;stroke:#000000;stroke-width:2.83465;stroke-linecap:butt;stroke-linejoin:miter;stroke-miterlimit:4;stroke-dasharray:none;stroke-opacity:1"
           d="m 107.473,-657.59 c 0,16.762 -13.563,30.348 -30.293,30.348 -16.731,0 -30.293,-13.586 -30.293,-30.348 0,-16.762 13.562,-30.348 30.293,-30.348 16.73,0 30.293,13.586 30.293,30.348 z" /></g><path
         id="path518"
         style="fill:#ffffff;fill-opacity:1;fill-rule:nonzero;stroke:none"
         d="m 657.59,107.473 c -16.762,0 -30.348,-13.563 -30.348,-30.293 0,-16.731 13.586,-30.293 30.348,-30.293 16.762,0 30.348,13.562 30.348,30.293 0,16.73 -13.586,30.293 -30.348,30.293 z" /><g
         transform="rotate(90)"
         id="g520"><path
           id="path522"
           style="fill:none;stroke:#000000;stroke-width:2.83465;stroke-linecap:butt;stroke-linejoin:miter;stroke-miterlimit:4;stroke-dasharray:none;stroke-opacity:1"
           d="m 216.773,-657.59 c 0,16.762 -13.562,30.348 -30.293,30.348 -16.73,0 -30.292,-13.586 -30.292,-30.348 0,-16.762 13.562,-30.348 30.292,-30.348 16.731,0 30.293,13.586 30.293,30.348 z" /></g><path
         id="path524"
         style="fill:#ffffff;fill-opacity:1;fill-rule:nonzero;stroke:none"
         d="m 657.59,216.773 c -16.762,0 -30.348,-13.562 -30.348,-30.293 0,-16.73 13.586,-30.292 30.348,-30.292 16.762,0 30.348,13.562 30.348,30.292 0,16.731 -13.586,30.293 -30.348,30.293 z" /><text
         id="text530"
         style="font-variant:normal;font-weight:normal;font-size:16.4103px;font-family:'LM Roman 10';-inkscape-font-specification:LMRoman10-Regular;writing-mode:lr-tb;fill:#000000;fill-opacity:1;fill-rule:nonzero;stroke:none"
         transform="rotate(90,272.97983,295.6786)"><tspan
           id="tspan526"
           sodipodi:role="line"
           y="0"
           x="0 4.5620613 9.1241226">...</tspan><tspan
           id="tspan528"
           sodipodi:role="line"
           y="-0.07019043"
           x="201.37776 205.93982 210.50189">...</tspan></text><path
         id="path532"
         style="fill:#000000;fill-opacity:1;fill-rule:nonzero;stroke:none"
         d="m 658.797,70.238 c 0.254,-0.293 0.293,-0.336 0.293,-0.59 0,-0.546 -0.379,-0.546 -0.887,-0.546 h -9.879 l -0.297,4.687 h 1.27 c 0.125,-2.746 0.969,-3.719 3.758,-3.719 h 2.277 l -7.516,9.797 c -0.254,0.297 -0.254,0.34 -0.254,0.594 0,0.59 0.383,0.59 0.887,0.59 h 10.219 l 0.508,-5.449 h -1.266 c -0.254,2.746 -0.676,4.351 -4.222,4.351 h -2.325 z" /><path
         id="path534"
         style="fill:#000000;fill-opacity:1;fill-rule:nonzero;stroke:none"
         d="m 665.125,77.656 h 1.902 c 0.379,0 0.59,0 0.59,-0.422 0,-0.254 -0.211,-0.254 -0.551,-0.254 h -1.773 l 0.676,-2.789 c 0.043,-0.082 0.086,-0.211 0.086,-0.25 0,-0.382 -0.297,-0.636 -0.676,-0.636 -0.465,0 -0.719,0.34 -0.887,0.804 -0.125,0.508 0.125,-0.421 -0.719,2.871 h -1.898 c -0.34,0 -0.594,0 -0.594,0.422 0,0.254 0.211,0.254 0.551,0.254 h 1.773 l -1.097,4.434 c -0.129,0.465 -0.297,1.14 -0.297,1.394 0,1.098 0.973,1.774 2.027,1.774 2.114,0 3.293,-2.621 3.293,-2.871 0,-0.254 -0.254,-0.254 -0.293,-0.254 -0.254,0 -0.254,0.043 -0.422,0.379 -0.507,1.183 -1.48,2.238 -2.492,2.238 -0.422,0 -0.676,-0.254 -0.676,-0.93 0,-0.168 0.082,-0.59 0.125,-0.758 z" /><path
         id="path536"
         style="fill:#000000;fill-opacity:1;fill-rule:nonzero;stroke:none"
         d="m 645.578,178.508 c 0.254,-0.293 0.297,-0.336 0.297,-0.59 0,-0.551 -0.383,-0.551 -0.887,-0.551 h -9.883 l -0.296,4.688 h 1.269 c 0.125,-2.743 0.969,-3.715 3.758,-3.715 h 2.277 l -7.515,9.797 c -0.254,0.297 -0.254,0.336 -0.254,0.59 0,0.593 0.383,0.593 0.886,0.593 h 10.219 l 0.508,-5.449 h -1.266 c -0.253,2.746 -0.675,4.352 -4.222,4.352 h -2.324 z" /><path
         id="path538"
         style="fill:#000000;fill-opacity:1;fill-rule:nonzero;stroke:none"
         d="m 651.906,185.926 h 1.903 c 0.379,0 0.589,0 0.589,-0.422 0,-0.254 -0.21,-0.254 -0.55,-0.254 h -1.774 l 0.676,-2.789 c 0.043,-0.082 0.086,-0.211 0.086,-0.254 0,-0.379 -0.297,-0.633 -0.676,-0.633 -0.465,0 -0.719,0.34 -0.887,0.805 -0.125,0.504 0.125,-0.422 -0.718,2.871 h -1.899 c -0.34,0 -0.594,0 -0.594,0.422 0,0.254 0.215,0.254 0.551,0.254 h 1.774 l -1.098,4.433 c -0.125,0.465 -0.297,1.141 -0.297,1.391 0,1.102 0.973,1.773 2.028,1.773 2.113,0 3.292,-2.617 3.292,-2.871 0,-0.25 -0.25,-0.25 -0.292,-0.25 -0.254,0 -0.254,0.039 -0.422,0.379 -0.508,1.184 -1.481,2.239 -2.493,2.239 -0.421,0 -0.675,-0.254 -0.675,-0.93 0,-0.168 0.082,-0.59 0.125,-0.762 z" /><path
         id="path540"
         style="fill:#000000;fill-opacity:1;fill-rule:nonzero;stroke:none"
         d="m 664.094,189.09 h 5.785 c 0.254,0 0.676,0 0.676,-0.422 0,-0.504 -0.422,-0.504 -0.676,-0.504 h -5.785 v -5.785 c 0,-0.211 0,-0.676 -0.422,-0.676 -0.465,0 -0.465,0.422 -0.465,0.676 v 5.785 h -5.785 c -0.25,0 -0.715,0 -0.715,0.465 0,0.461 0.422,0.461 0.715,0.461 h 5.785 v 5.785 c 0,0.254 0,0.719 0.426,0.719 0.461,0 0.461,-0.465 0.461,-0.719 z" /><path
         id="path542"
         style="fill:#000000;fill-opacity:1;fill-rule:nonzero;stroke:none"
         d="m 678.219,181.363 c 0,-0.508 0,-0.508 -0.551,-0.508 -1.223,1.184 -2.914,1.184 -3.672,1.184 v 0.676 c 0.422,0 1.688,0 2.699,-0.508 v 9.586 c 0,0.633 0,0.887 -1.855,0.887 h -0.719 v 0.675 c 0.34,0 2.66,-0.082 3.336,-0.082 0.59,0 2.957,0.082 3.379,0.082 v -0.675 h -0.719 c -1.898,0 -1.898,-0.254 -1.898,-0.887 z" /><text
         id="text546"
         style="font-variant:normal;font-weight:normal;font-size:13.1282px;font-family:cmr10;-inkscape-font-specification:cmr10;writing-mode:lr-tb;fill:#000000;fill-opacity:1;fill-rule:nonzero;stroke:none"
         transform="translate(3.314102,150.9215)"><tspan
           id="tspan544"
           sodipodi:role="line"
           y="0"
           x="0 9.6492462 16.21336 21.38588 26.479631 32.295437 37.428574 41.80027 45.42366 52.709827 59.995995 67.282158">Raster input</tspan></text><path
         id="path548"
         style="fill:#000000;fill-opacity:1;fill-rule:nonzero;stroke:none"
         d="m 27.035,123.652 4.219,-5.558 c 0.273,-0.356 0.312,-0.395 1.18,-0.473 0.593,-0.078 0.75,-0.078 1.461,-0.078 h 0.707 v -1.184 c -1.024,0.082 -2.286,0.082 -3.348,0.082 -0.988,0 -2.918,0 -3.824,-0.082 v 1.184 c 0.433,0 1.418,0 2.324,0.277 -0.039,0.078 -0.156,0.196 -0.195,0.274 l -3.352,4.414 -3.586,-4.965 h 2.09 v -1.184 c -1.023,0.082 -3.43,0.082 -4.531,0.082 -1.028,0 -3.192,0 -4.098,-0.082 v 1.184 h 2.48 l 5.559,7.723 -5.047,6.66 c -0.234,0.316 -0.273,0.355 -1.101,0.433 -0.512,0.039 -1.024,0.079 -1.539,0.079 h -0.707 v 1.183 c 1.023,-0.078 2.285,-0.078 3.347,-0.078 0.988,0 2.918,0 3.824,0.078 v -1.183 c -0.433,0 -1.418,0 -2.324,-0.274 0.039,-0.039 0.156,-0.199 0.235,-0.277 l 4.136,-5.516 4.375,6.067 h -2.086 v 1.183 c 1.024,-0.078 3.426,-0.078 4.532,-0.078 1.023,0 3.191,0 4.097,0.078 v -1.183 h -2.484 z" /><path
         id="path550"
         style="fill:#000000;fill-opacity:1;fill-rule:nonzero;stroke:none"
         d="m 42.93,111.34 c -3.309,2.324 -4.215,6.066 -4.215,8.746 0,2.484 0.75,6.348 4.215,8.789 0.16,0 0.355,0 0.355,-0.195 0,-0.121 -0.039,-0.16 -0.156,-0.278 -2.363,-2.129 -3.191,-5.082 -3.191,-8.273 0,-4.77 1.812,-7.094 3.23,-8.395 0.078,-0.078 0.117,-0.117 0.117,-0.199 0,-0.195 -0.195,-0.195 -0.355,-0.195 z" /><path
         id="path552"
         style="fill:#000000;fill-opacity:1;fill-rule:nonzero;stroke:none"
         d="m 48.895,117.566 h 1.773 c 0.355,0 0.551,0 0.551,-0.394 0,-0.238 -0.196,-0.238 -0.512,-0.238 h -1.656 l 0.633,-2.598 c 0.039,-0.082 0.078,-0.199 0.078,-0.238 0,-0.356 -0.278,-0.59 -0.633,-0.59 -0.434,0 -0.668,0.312 -0.828,0.746 -0.117,0.473 0.121,-0.391 -0.668,2.68 h -1.774 c -0.316,0 -0.55,0 -0.55,0.394 0,0.238 0.195,0.238 0.511,0.238 h 1.657 l -1.028,4.137 c -0.117,0.434 -0.273,1.067 -0.273,1.301 0,1.023 0.906,1.656 1.89,1.656 1.969,0 3.075,-2.445 3.075,-2.68 0,-0.238 -0.239,-0.238 -0.278,-0.238 -0.234,0 -0.234,0.039 -0.394,0.356 -0.473,1.101 -1.379,2.09 -2.324,2.09 -0.395,0 -0.629,-0.239 -0.629,-0.868 0,-0.16 0.078,-0.55 0.117,-0.711 z" /><path
         id="path554"
         style="fill:#000000;fill-opacity:1;fill-rule:nonzero;stroke:none"
         d="m 53.723,111.34 c -0.118,0 -0.313,0 -0.313,0.195 0,0.082 0.039,0.121 0.156,0.277 1.496,1.379 3.192,3.743 3.192,8.274 0,3.668 -1.141,6.465 -3.035,8.16 -0.313,0.313 -0.313,0.313 -0.313,0.434 0,0.078 0.039,0.195 0.195,0.195 0.239,0 1.891,-1.141 3.075,-3.348 0.75,-1.461 1.261,-3.351 1.261,-5.398 0,-2.484 -0.75,-6.348 -4.218,-8.789 z" /><g
         transform="scale(1,-1)"
         id="g556"><path
           id="path558"
           style="fill:none;stroke:#000000;stroke-width:0.75;stroke-linecap:butt;stroke-linejoin:miter;stroke-miterlimit:4;stroke-dasharray:none;stroke-opacity:1"
           d="m 497.543,-131.16 h 19.391" /></g><g
         transform="scale(-1,1)"
         id="g560"><path
           id="path562"
           style="fill:#000000;fill-opacity:1;fill-rule:evenodd;stroke:#000000;stroke-width:0.8;stroke-linecap:butt;stroke-linejoin:miter;stroke-miterlimit:4;stroke-dasharray:none;stroke-opacity:1"
           d="m -509.434,131.16 3,-3 -10.5,3 10.5,3 z" /></g><text
         id="text566"
         style="font-variant:normal;font-weight:normal;font-size:16.4103px;font-family:'LM Roman 10';-inkscape-font-specification:LMRoman10-Regular;writing-mode:lr-tb;fill:#000000;fill-opacity:1;fill-rule:nonzero;stroke:none"
         transform="translate(547.42912,15.319259)"><tspan
           id="tspan564"
           sodipodi:role="line"
           y="0"
           x="0 9.1241226 15.507727 23.712873 30.096478 37.382648 63.606297 76.373505 85.497627 91.96328 99.249451 105.68229 113.41154 121.61668 128.00029 132.56235 140.76749 149.89162">StatesObservations</tspan></text></g><g
       style="opacity:0.6913515"
       transform="matrix(1.33333,0,0,1.33333,334.50048,53.271359)"
       ns27:version="1.0.1"
       ns27:texconverter="pdflatex"
       ns27:pdfconverter="inkscape"
       ns27:text="Transition probability matrix"
       ns27:preamble="/home/max/.config/inkscape/extensions/textext/default_packages.tex"
       ns27:scale="1.0000000566928784"
       ns27:alignment="middle center"
       ns27:jacobian_sqrt="1.33333"
       id="g1791"><defs
   id="id-f9b6651e-4635-4ddd-9087-1134cb723482">
    <g
   id="id-b4ff6391-1ec8-4759-b9cf-58edc82c650c">
      <symbol
   id="id-00017993-f6e4-44db-8ac5-e219060ed61e"
   overflow="visible">
        <path
   id="id-af72682d-ffe4-4c1e-8a80-70b3883b9774"
   d=""
   style="stroke:none" />
      </symbol>
      <symbol
   id="id-4e5973f8-42b8-42f1-82ab-70564ccfec8e"
   overflow="visible">
        <path
   id="id-42caa6e8-7e61-41a0-aaa3-6a88ec345b9d"
   d="m 6.640625,-6.75 h -6.09375 l -0.1875,2.25 h 0.25 C 0.75,-6.109375 0.890625,-6.4375 2.40625,-6.4375 c 0.171875,0 0.4375,0 0.53125,0.015625 0.21875,0.046875 0.21875,0.15625 0.21875,0.375 v 5.265625 c 0,0.328125 0,0.46875 -1.046875,0.46875 H 1.703125 V 0 C 2.109375,-0.03125 3.125,-0.03125 3.59375,-0.03125 c 0.453125,0 1.484375,0 1.890625,0.03125 v -0.3125 h -0.40625 c -1.046875,0 -1.046875,-0.140625 -1.046875,-0.46875 v -5.265625 c 0,-0.1875 0,-0.328125 0.1875,-0.375 0.109375,-0.015625 0.375,-0.015625 0.5625,-0.015625 1.515625,0 1.65625,0.328125 1.796875,1.9375 h 0.25 z m 0,0"
   style="stroke:none" />
      </symbol>
      <symbol
   id="id-90f4e762-3a92-463a-9ab0-6ac9828fa674"
   overflow="visible">
        <path
   id="id-f794bf61-efa8-4925-80a5-6105dd0b2c44"
   d="M 1.671875,-3.3125 V -4.40625 L 0.28125,-4.296875 v 0.3125 c 0.703125,0 0.78125,0.0625 0.78125,0.5625 V -0.75 c 0,0.4375 -0.109375,0.4375 -0.78125,0.4375 V 0 c 0.390625,-0.015625 0.859375,-0.03125 1.140625,-0.03125 0.390625,0 0.859375,0 1.265625,0.03125 V -0.3125 H 2.46875 c -0.734375,0 -0.75,-0.109375 -0.75,-0.46875 V -2.3125 c 0,-0.984375 0.421875,-1.875 1.171875,-1.875 0.0625,0 0.09375,0 0.109375,0.015625 -0.03125,0 -0.234375,0.125 -0.234375,0.390625 0,0.265625 0.21875,0.421875 0.4375,0.421875 0.171875,0 0.421875,-0.125 0.421875,-0.4375 0,-0.3125 -0.3125,-0.609375 -0.734375,-0.609375 -0.734375,0 -1.09375,0.671875 -1.21875,1.09375 z m 0,0"
   style="stroke:none" />
      </symbol>
      <symbol
   id="id-e6a86335-4154-4786-94ac-64e98ad313de"
   overflow="visible">
        <path
   id="id-28da3b50-9cfb-456b-ac62-7843f5ffd07c"
   d="m 3.3125,-0.75 c 0.046875,0.390625 0.3125,0.8125 0.78125,0.8125 0.21875,0 0.828125,-0.140625 0.828125,-0.953125 v -0.5625 h -0.25 v 0.5625 c 0,0.578125 -0.25,0.640625 -0.359375,0.640625 -0.328125,0 -0.375,-0.453125 -0.375,-0.5 v -1.984375 c 0,-0.421875 0,-0.8125 -0.359375,-1.1875 C 3.1875,-4.3125 2.6875,-4.46875 2.21875,-4.46875 c -0.828125,0 -1.515625,0.46875 -1.515625,1.125 0,0.296875 0.203125,0.46875 0.46875,0.46875 0.28125,0 0.453125,-0.203125 0.453125,-0.453125 0,-0.125 -0.046875,-0.453125 -0.515625,-0.453125 C 1.390625,-4.140625 1.875,-4.25 2.1875,-4.25 c 0.5,0 1.0625,0.390625 1.0625,1.28125 v 0.359375 c -0.515625,0.03125 -1.203125,0.0625 -1.828125,0.359375 -0.75,0.34375 -1,0.859375 -1,1.296875 0,0.8125 0.96875,1.0625 1.59375,1.0625 0.65625,0 1.109375,-0.40625 1.296875,-0.859375 z M 3.25,-2.390625 v 1 c 0,0.9375 -0.71875,1.28125 -1.171875,1.28125 -0.484375,0 -0.890625,-0.34375 -0.890625,-0.84375 0,-0.546875 0.421875,-1.375 2.0625,-1.4375 z m 0,0"
   style="stroke:none" />
      </symbol>
      <symbol
   id="id-899477d8-a72a-47cf-9231-a07c8a747840"
   overflow="visible">
        <path
   id="id-f63c7a1a-74a1-4774-b903-db4c9297e109"
   d="M 1.09375,-3.421875 V -0.75 c 0,0.4375 -0.109375,0.4375 -0.78125,0.4375 V 0 c 0.359375,-0.015625 0.859375,-0.03125 1.140625,-0.03125 0.25,0 0.765625,0.015625 1.109375,0.03125 v -0.3125 c -0.671875,0 -0.78125,0 -0.78125,-0.4375 V -2.59375 C 1.78125,-3.625 2.5,-4.1875 3.125,-4.1875 c 0.640625,0 0.75,0.53125 0.75,1.109375 V -0.75 c 0,0.4375 -0.109375,0.4375 -0.78125,0.4375 V 0 c 0.34375,-0.015625 0.859375,-0.03125 1.125,-0.03125 0.25,0 0.78125,0.015625 1.109375,0.03125 v -0.3125 c -0.515625,0 -0.765625,0 -0.765625,-0.296875 v -1.90625 c 0,-0.859375 0,-1.15625 -0.3125,-1.515625 -0.140625,-0.171875 -0.46875,-0.375 -1.046875,-0.375 C 2.46875,-4.40625 2,-3.984375 1.71875,-3.359375 V -4.40625 L 0.3125,-4.296875 v 0.3125 c 0.703125,0 0.78125,0.0625 0.78125,0.5625 z m 0,0"
   style="stroke:none" />
      </symbol>
      <symbol
   id="id-292c503b-bd4b-4071-acde-753a968e1638"
   overflow="visible">
        <path
   id="id-1f1801e1-b8dc-4e26-b8dc-ab692e70383d"
   d="m 2.078125,-1.9375 c 0.21875,0.046875 1.03125,0.203125 1.03125,0.921875 0,0.5 -0.34375,0.90625 -1.125,0.90625 -0.84375,0 -1.203125,-0.5625 -1.390625,-1.421875 C 0.5625,-1.65625 0.5625,-1.6875 0.453125,-1.6875 c -0.125,0 -0.125,0.0625 -0.125,0.234375 V -0.125 c 0,0.171875 0,0.234375 0.109375,0.234375 0.046875,0 0.0625,-0.015625 0.25,-0.203125 0.015625,-0.015625 0.015625,-0.03125 0.203125,-0.21875 0.4375,0.40625 0.890625,0.421875 1.09375,0.421875 1.140625,0 1.609375,-0.671875 1.609375,-1.390625 0,-0.515625 -0.296875,-0.828125 -0.421875,-0.9375 C 2.84375,-2.546875 2.453125,-2.625 2.03125,-2.703125 1.46875,-2.8125 0.8125,-2.9375 0.8125,-3.515625 c 0,-0.359375 0.25,-0.765625 1.109375,-0.765625 1.09375,0 1.15625,0.90625 1.171875,1.203125 0,0.09375 0.09375,0.09375 0.109375,0.09375 0.140625,0 0.140625,-0.046875 0.140625,-0.234375 v -1.015625 c 0,-0.15625 0,-0.234375 -0.109375,-0.234375 -0.046875,0 -0.078125,0 -0.203125,0.125 -0.03125,0.03125 -0.125,0.125 -0.171875,0.15625 -0.375,-0.28125 -0.78125,-0.28125 -0.9375,-0.28125 -1.21875,0 -1.59375,0.671875 -1.59375,1.234375 0,0.34375 0.15625,0.625 0.421875,0.84375 0.328125,0.25 0.609375,0.3125 1.328125,0.453125 z m 0,0"
   style="stroke:none" />
      </symbol>
      <symbol
   id="id-ae2cb3b0-b598-4ab6-bb85-76138da5b7f0"
   overflow="visible">
        <path
   id="id-314403fa-bf68-4d81-8edc-5a0ec96bb715"
   d="M 1.765625,-4.40625 0.375,-4.296875 v 0.3125 c 0.640625,0 0.734375,0.0625 0.734375,0.546875 V -0.75 c 0,0.4375 -0.109375,0.4375 -0.78125,0.4375 V 0 C 0.640625,-0.015625 1.1875,-0.03125 1.421875,-0.03125 1.78125,-0.03125 2.125,-0.015625 2.46875,0 v -0.3125 c -0.671875,0 -0.703125,-0.046875 -0.703125,-0.4375 z m 0.03125,-1.734375 c 0,-0.3125 -0.234375,-0.53125 -0.515625,-0.53125 -0.3125,0 -0.53125,0.265625 -0.53125,0.53125 0,0.265625 0.21875,0.53125 0.53125,0.53125 0.28125,0 0.515625,-0.21875 0.515625,-0.53125 z m 0,0"
   style="stroke:none" />
      </symbol>
      <symbol
   id="id-846edc2b-065b-4132-b250-29f46289fd08"
   overflow="visible">
        <path
   id="id-77b9b5be-cd5d-484f-8199-d14e23bce7f7"
   d="m 1.71875,-3.984375 h 1.4375 v -0.3125 H 1.71875 V -6.125 h -0.25 c 0,0.8125 -0.296875,1.875 -1.28125,1.921875 v 0.21875 h 0.84375 v 2.75 c 0,1.21875 0.9375,1.34375 1.296875,1.34375 0.703125,0 0.984375,-0.703125 0.984375,-1.34375 v -0.5625 h -0.25 V -1.25 c 0,0.734375 -0.296875,1.109375 -0.671875,1.109375 -0.671875,0 -0.671875,-0.90625 -0.671875,-1.078125 z m 0,0"
   style="stroke:none" />
      </symbol>
      <symbol
   id="id-8da70a50-f19e-4636-aad8-e12a827ce1ad"
   overflow="visible">
        <path
   id="id-eca655d9-4b1f-4322-a542-d513c72b2184"
   d="M 4.6875,-2.140625 C 4.6875,-3.40625 3.703125,-4.46875 2.5,-4.46875 c -1.25,0 -2.21875,1.09375 -2.21875,2.328125 0,1.296875 1.03125,2.25 2.203125,2.25 1.203125,0 2.203125,-0.984375 2.203125,-2.25 z m -2.1875,2 c -0.4375,0 -0.875,-0.203125 -1.140625,-0.671875 -0.25,-0.4375 -0.25,-1.046875 -0.25,-1.40625 0,-0.390625 0,-0.921875 0.234375,-1.359375 C 1.609375,-4.03125 2.078125,-4.25 2.484375,-4.25 c 0.4375,0 0.859375,0.21875 1.125,0.65625 0.265625,0.421875 0.265625,1 0.265625,1.375 0,0.359375 0,0.90625 -0.21875,1.34375 C 3.421875,-0.421875 2.984375,-0.140625 2.5,-0.140625 Z m 0,0"
   style="stroke:none" />
      </symbol>
      <symbol
   id="id-e69efd88-fb4c-4eae-b297-fef2aaf5a346"
   overflow="visible">
        <path
   id="id-48e2032c-2a0c-4e8e-8756-5f37c5f0c0e7"
   d="m 1.71875,-3.75 v -0.65625 l -1.4375,0.109375 v 0.3125 c 0.703125,0 0.78125,0.0625 0.78125,0.5 v 4.65625 C 1.0625,1.625 0.953125,1.625 0.28125,1.625 V 1.9375 C 0.625,1.921875 1.140625,1.90625 1.390625,1.90625 c 0.28125,0 0.78125,0.015625 1.125,0.03125 V 1.625 C 1.859375,1.625 1.75,1.625 1.75,1.171875 V -0.59375 c 0.046875,0.171875 0.46875,0.703125 1.21875,0.703125 1.1875,0 2.21875,-0.984375 2.21875,-2.265625 0,-1.265625 -0.953125,-2.25 -2.078125,-2.25 -0.78125,0 -1.203125,0.4375 -1.390625,0.65625 z M 1.75,-1.140625 v -2.21875 C 2.03125,-3.875 2.515625,-4.15625 3.03125,-4.15625 c 0.734375,0 1.328125,0.875 1.328125,2 0,1.203125 -0.6875,2.046875 -1.421875,2.046875 -0.40625,0 -0.78125,-0.203125 -1.046875,-0.609375 C 1.75,-0.921875 1.75,-0.9375 1.75,-1.140625 Z m 0,0"
   style="stroke:none" />
      </symbol>
      <symbol
   id="id-a73b3334-7e64-44cc-8001-8d920a1bec6d"
   overflow="visible">
        <path
   id="id-891b3593-fb1c-4072-9e36-5a4368c4c519"
   d="m 1.71875,-3.765625 v -3.15625 L 0.28125,-6.8125 V -6.5 c 0.703125,0 0.78125,0.0625 0.78125,0.5625 V 0 h 0.25 c 0,-0.015625 0.078125,-0.15625 0.359375,-0.625 0.140625,0.234375 0.5625,0.734375 1.296875,0.734375 1.1875,0 2.21875,-0.984375 2.21875,-2.265625 0,-1.265625 -0.96875,-2.25 -2.109375,-2.25 -0.78125,0 -1.203125,0.46875 -1.359375,0.640625 z m 0.03125,2.625 V -3.1875 c 0,-0.1875 0,-0.203125 0.109375,-0.359375 C 2.25,-4.109375 2.796875,-4.1875 3.03125,-4.1875 c 0.453125,0 0.8125,0.265625 1.046875,0.640625 0.265625,0.40625 0.28125,0.96875 0.28125,1.390625 0,0.359375 -0.015625,0.953125 -0.296875,1.40625 -0.21875,0.3125 -0.59375,0.640625 -1.125,0.640625 -0.453125,0 -0.8125,-0.234375 -1.046875,-0.609375 C 1.75,-0.921875 1.75,-0.953125 1.75,-1.140625 Z m 0,0"
   style="stroke:none" />
      </symbol>
      <symbol
   id="id-e3d9b357-41bb-43d8-8fff-94ddeed48b59"
   overflow="visible">
        <path
   id="id-51ab2057-905e-4daa-bc72-673ab5de6ff8"
   d="M 1.765625,-6.921875 0.328125,-6.8125 V -6.5 c 0.703125,0 0.78125,0.0625 0.78125,0.5625 V -0.75 c 0,0.4375 -0.109375,0.4375 -0.78125,0.4375 V 0 C 0.65625,-0.015625 1.1875,-0.03125 1.4375,-0.03125 c 0.25,0 0.734375,0.015625 1.109375,0.03125 v -0.3125 c -0.671875,0 -0.78125,0 -0.78125,-0.4375 z m 0,0"
   style="stroke:none" />
      </symbol>
      <symbol
   id="id-f70da7d0-d090-4921-966b-6fa52cf506c1"
   overflow="visible">
        <path
   id="id-7238e6df-1700-4b4f-80dd-6a264b2052ad"
   d="m 4.140625,-3.34375 c 0.25,-0.640625 0.765625,-0.640625 0.921875,-0.640625 v -0.3125 c -0.234375,0.015625 -0.515625,0.03125 -0.75,0.03125 -0.171875,0 -0.640625,-0.015625 -0.859375,-0.03125 v 0.3125 c 0.3125,0 0.46875,0.171875 0.46875,0.421875 0,0.109375 -0.015625,0.125 -0.0625,0.25 L 2.84375,-0.875 1.75,-3.546875 C 1.703125,-3.65625 1.6875,-3.6875 1.6875,-3.734375 c 0,-0.25 0.359375,-0.25 0.5625,-0.25 v -0.3125 c -0.265625,0.015625 -0.921875,0.03125 -1.09375,0.03125 -0.265625,0 -0.671875,-0.015625 -0.96875,-0.03125 v 0.3125 c 0.484375,0 0.671875,0 0.8125,0.34375 L 2.5,0 C 2.4375,0.125 2.296875,0.453125 2.25,0.59375 2.03125,1.140625 1.75,1.828125 1.109375,1.828125 c -0.046875,0 -0.28125,0 -0.46875,-0.1875 0.3125,-0.03125 0.390625,-0.25 0.390625,-0.421875 0,-0.25 -0.1875,-0.40625 -0.421875,-0.40625 -0.203125,0 -0.421875,0.125 -0.421875,0.421875 0,0.453125 0.421875,0.8125 0.921875,0.8125 0.625,0 1.03125,-0.578125 1.265625,-1.140625 z m 0,0"
   style="stroke:none" />
      </symbol>
      <symbol
   id="id-09b46513-1cba-4160-8fb3-c65683a7445c"
   overflow="visible">
        <path
   id="id-0c2c37f4-3063-4369-abc2-d0f231128cf5"
   d="M 1.09375,-3.421875 V -0.75 c 0,0.4375 -0.109375,0.4375 -0.78125,0.4375 V 0 c 0.359375,-0.015625 0.859375,-0.03125 1.140625,-0.03125 0.25,0 0.765625,0.015625 1.109375,0.03125 v -0.3125 c -0.671875,0 -0.78125,0 -0.78125,-0.4375 V -2.59375 C 1.78125,-3.625 2.5,-4.1875 3.125,-4.1875 c 0.640625,0 0.75,0.53125 0.75,1.109375 V -0.75 c 0,0.4375 -0.109375,0.4375 -0.78125,0.4375 V 0 c 0.34375,-0.015625 0.859375,-0.03125 1.125,-0.03125 0.25,0 0.78125,0.015625 1.109375,0.03125 v -0.3125 c -0.65625,0 -0.765625,0 -0.765625,-0.4375 v -1.84375 c 0,-1.03125 0.703125,-1.59375 1.34375,-1.59375 0.625,0 0.734375,0.53125 0.734375,1.109375 V -0.75 c 0,0.4375 -0.109375,0.4375 -0.78125,0.4375 V 0 c 0.34375,-0.015625 0.859375,-0.03125 1.125,-0.03125 0.265625,0 0.78125,0.015625 1.125,0.03125 v -0.3125 c -0.515625,0 -0.765625,0 -0.78125,-0.296875 v -1.90625 c 0,-0.859375 0,-1.15625 -0.3125,-1.515625 -0.140625,-0.171875 -0.46875,-0.375 -1.046875,-0.375 -0.828125,0 -1.28125,0.59375 -1.4375,0.984375 C 4.390625,-4.296875 3.65625,-4.40625 3.203125,-4.40625 2.46875,-4.40625 2,-3.984375 1.71875,-3.359375 V -4.40625 L 0.3125,-4.296875 v 0.3125 c 0.703125,0 0.78125,0.0625 0.78125,0.5625 z m 0,0"
   style="stroke:none" />
      </symbol>
      <symbol
   id="id-b891c487-e2df-4e0d-a9f9-fd8ae3338bfe"
   overflow="visible">
        <path
   id="id-d963dd0b-82c6-4092-ae22-b27e1db0edff"
   d="M 2.859375,-2.34375 C 3.15625,-2.71875 3.53125,-3.203125 3.78125,-3.46875 4.09375,-3.828125 4.5,-3.984375 4.96875,-3.984375 v -0.3125 c -0.265625,0.015625 -0.5625,0.03125 -0.828125,0.03125 -0.296875,0 -0.828125,-0.015625 -0.953125,-0.03125 v 0.3125 c 0.21875,0.015625 0.296875,0.140625 0.296875,0.3125 0,0.15625 -0.109375,0.28125 -0.15625,0.34375 L 2.71875,-2.546875 1.9375,-3.5625 C 1.84375,-3.65625 1.84375,-3.671875 1.84375,-3.734375 c 0,-0.15625 0.15625,-0.25 0.34375,-0.25 v -0.3125 c -0.25,0.015625 -0.90625,0.03125 -1.078125,0.03125 -0.203125,0 -0.671875,-0.015625 -0.9375,-0.03125 v 0.3125 c 0.703125,0 0.703125,0 1.171875,0.609375 l 0.984375,1.28125 -0.9375,1.1875 C 0.921875,-0.328125 0.328125,-0.3125 0.125,-0.3125 V 0 c 0.25,-0.015625 0.5625,-0.03125 0.828125,-0.03125 0.28125,0 0.703125,0.015625 0.9375,0.03125 v -0.3125 c -0.21875,-0.03125 -0.28125,-0.15625 -0.28125,-0.3125 0,-0.21875 0.28125,-0.546875 0.890625,-1.265625 l 0.765625,1 C 3.34375,-0.78125 3.46875,-0.625 3.46875,-0.5625 c 0,0.09375 -0.09375,0.25 -0.359375,0.25 V 0 C 3.40625,-0.015625 3.96875,-0.03125 4.1875,-0.03125 c 0.265625,0 0.65625,0.015625 0.953125,0.03125 v -0.3125 c -0.53125,0 -0.71875,-0.015625 -0.9375,-0.3125 z m 0,0"
   style="stroke:none" />
      </symbol>
    </g>
  </defs>
  <g
   transform="translate(-149.071,-127.843)"
   id="id-ea054e48-7db5-4e8a-8b3d-68c1507ae4ed">
    <g
   id="id-a7885aa6-a0cb-4b5e-9e3b-edbca7947e6d"
   style="fill:#000000;fill-opacity:1">
      <g
   transform="translate(148.712,134.765)"
   id="g1705"><path
   id="id-9fcfcc9d-ca0c-4ca7-a264-90fbf83b0f03"
   d="m 6.640625,-6.75 h -6.09375 l -0.1875,2.25 h 0.25 C 0.75,-6.109375 0.890625,-6.4375 2.40625,-6.4375 c 0.171875,0 0.4375,0 0.53125,0.015625 0.21875,0.046875 0.21875,0.15625 0.21875,0.375 v 5.265625 c 0,0.328125 0,0.46875 -1.046875,0.46875 H 1.703125 V 0 C 2.109375,-0.03125 3.125,-0.03125 3.59375,-0.03125 c 0.453125,0 1.484375,0 1.890625,0.03125 v -0.3125 h -0.40625 c -1.046875,0 -1.046875,-0.140625 -1.046875,-0.46875 v -5.265625 c 0,-0.1875 0,-0.328125 0.1875,-0.375 0.109375,-0.015625 0.375,-0.015625 0.5625,-0.015625 1.515625,0 1.65625,0.328125 1.796875,1.9375 h 0.25 z m 0,0"
   style="stroke:none" />
      </g></g>
    <g
   id="id-c775c49d-260b-409f-8064-51403913e928"
   style="fill:#000000;fill-opacity:1">
      <g
   transform="translate(155.08,134.765)"
   id="g1709"><path
   id="id-c9d88d5f-30f2-43d6-8e32-fd0e2e0857e2"
   d="M 1.671875,-3.3125 V -4.40625 L 0.28125,-4.296875 v 0.3125 c 0.703125,0 0.78125,0.0625 0.78125,0.5625 V -0.75 c 0,0.4375 -0.109375,0.4375 -0.78125,0.4375 V 0 c 0.390625,-0.015625 0.859375,-0.03125 1.140625,-0.03125 0.390625,0 0.859375,0 1.265625,0.03125 V -0.3125 H 2.46875 c -0.734375,0 -0.75,-0.109375 -0.75,-0.46875 V -2.3125 c 0,-0.984375 0.421875,-1.875 1.171875,-1.875 0.0625,0 0.09375,0 0.109375,0.015625 -0.03125,0 -0.234375,0.125 -0.234375,0.390625 0,0.265625 0.21875,0.421875 0.4375,0.421875 0.171875,0 0.421875,-0.125 0.421875,-0.4375 0,-0.3125 -0.3125,-0.609375 -0.734375,-0.609375 -0.734375,0 -1.09375,0.671875 -1.21875,1.09375 z m 0,0"
   style="stroke:none" />
      </g><g
   transform="translate(158.982,134.765)"
   id="g1712"><path
   id="id-d2cbcb14-a91a-4a99-b881-af8b07c7ea38"
   d="m 3.3125,-0.75 c 0.046875,0.390625 0.3125,0.8125 0.78125,0.8125 0.21875,0 0.828125,-0.140625 0.828125,-0.953125 v -0.5625 h -0.25 v 0.5625 c 0,0.578125 -0.25,0.640625 -0.359375,0.640625 -0.328125,0 -0.375,-0.453125 -0.375,-0.5 v -1.984375 c 0,-0.421875 0,-0.8125 -0.359375,-1.1875 C 3.1875,-4.3125 2.6875,-4.46875 2.21875,-4.46875 c -0.828125,0 -1.515625,0.46875 -1.515625,1.125 0,0.296875 0.203125,0.46875 0.46875,0.46875 0.28125,0 0.453125,-0.203125 0.453125,-0.453125 0,-0.125 -0.046875,-0.453125 -0.515625,-0.453125 C 1.390625,-4.140625 1.875,-4.25 2.1875,-4.25 c 0.5,0 1.0625,0.390625 1.0625,1.28125 v 0.359375 c -0.515625,0.03125 -1.203125,0.0625 -1.828125,0.359375 -0.75,0.34375 -1,0.859375 -1,1.296875 0,0.8125 0.96875,1.0625 1.59375,1.0625 0.65625,0 1.109375,-0.40625 1.296875,-0.859375 z M 3.25,-2.390625 v 1 c 0,0.9375 -0.71875,1.28125 -1.171875,1.28125 -0.484375,0 -0.890625,-0.34375 -0.890625,-0.84375 0,-0.546875 0.421875,-1.375 2.0625,-1.4375 z m 0,0"
   style="stroke:none" />
      </g><g
   transform="translate(163.964,134.765)"
   id="g1715"><path
   id="id-57ea3426-9a37-46ca-bc36-d0603f65560d"
   d="M 1.09375,-3.421875 V -0.75 c 0,0.4375 -0.109375,0.4375 -0.78125,0.4375 V 0 c 0.359375,-0.015625 0.859375,-0.03125 1.140625,-0.03125 0.25,0 0.765625,0.015625 1.109375,0.03125 v -0.3125 c -0.671875,0 -0.78125,0 -0.78125,-0.4375 V -2.59375 C 1.78125,-3.625 2.5,-4.1875 3.125,-4.1875 c 0.640625,0 0.75,0.53125 0.75,1.109375 V -0.75 c 0,0.4375 -0.109375,0.4375 -0.78125,0.4375 V 0 c 0.34375,-0.015625 0.859375,-0.03125 1.125,-0.03125 0.25,0 0.78125,0.015625 1.109375,0.03125 v -0.3125 c -0.515625,0 -0.765625,0 -0.765625,-0.296875 v -1.90625 c 0,-0.859375 0,-1.15625 -0.3125,-1.515625 -0.140625,-0.171875 -0.46875,-0.375 -1.046875,-0.375 C 2.46875,-4.40625 2,-3.984375 1.71875,-3.359375 V -4.40625 L 0.3125,-4.296875 v 0.3125 c 0.703125,0 0.78125,0.0625 0.78125,0.5625 z m 0,0"
   style="stroke:none" />
      </g><g
   transform="translate(169.499,134.765)"
   id="g1718"><path
   id="id-8f6e31c4-a097-4308-844e-042e6b07a790"
   d="m 2.078125,-1.9375 c 0.21875,0.046875 1.03125,0.203125 1.03125,0.921875 0,0.5 -0.34375,0.90625 -1.125,0.90625 -0.84375,0 -1.203125,-0.5625 -1.390625,-1.421875 C 0.5625,-1.65625 0.5625,-1.6875 0.453125,-1.6875 c -0.125,0 -0.125,0.0625 -0.125,0.234375 V -0.125 c 0,0.171875 0,0.234375 0.109375,0.234375 0.046875,0 0.0625,-0.015625 0.25,-0.203125 0.015625,-0.015625 0.015625,-0.03125 0.203125,-0.21875 0.4375,0.40625 0.890625,0.421875 1.09375,0.421875 1.140625,0 1.609375,-0.671875 1.609375,-1.390625 0,-0.515625 -0.296875,-0.828125 -0.421875,-0.9375 C 2.84375,-2.546875 2.453125,-2.625 2.03125,-2.703125 1.46875,-2.8125 0.8125,-2.9375 0.8125,-3.515625 c 0,-0.359375 0.25,-0.765625 1.109375,-0.765625 1.09375,0 1.15625,0.90625 1.171875,1.203125 0,0.09375 0.09375,0.09375 0.109375,0.09375 0.140625,0 0.140625,-0.046875 0.140625,-0.234375 v -1.015625 c 0,-0.15625 0,-0.234375 -0.109375,-0.234375 -0.046875,0 -0.078125,0 -0.203125,0.125 -0.03125,0.03125 -0.125,0.125 -0.171875,0.15625 -0.375,-0.28125 -0.78125,-0.28125 -0.9375,-0.28125 -1.21875,0 -1.59375,0.671875 -1.59375,1.234375 0,0.34375 0.15625,0.625 0.421875,0.84375 0.328125,0.25 0.609375,0.3125 1.328125,0.453125 z m 0,0"
   style="stroke:none" />
      </g><g
   transform="translate(173.428,134.765)"
   id="g1721"><path
   id="id-2b955ec6-3776-4e1f-9b8b-bc422c13bd88"
   d="M 1.765625,-4.40625 0.375,-4.296875 v 0.3125 c 0.640625,0 0.734375,0.0625 0.734375,0.546875 V -0.75 c 0,0.4375 -0.109375,0.4375 -0.78125,0.4375 V 0 C 0.640625,-0.015625 1.1875,-0.03125 1.421875,-0.03125 1.78125,-0.03125 2.125,-0.015625 2.46875,0 v -0.3125 c -0.671875,0 -0.703125,-0.046875 -0.703125,-0.4375 z m 0.03125,-1.734375 c 0,-0.3125 -0.234375,-0.53125 -0.515625,-0.53125 -0.3125,0 -0.53125,0.265625 -0.53125,0.53125 0,0.265625 0.21875,0.53125 0.53125,0.53125 0.28125,0 0.515625,-0.21875 0.515625,-0.53125 z m 0,0"
   style="stroke:none" />
      </g><g
   transform="translate(176.196,134.765)"
   id="g1724"><path
   id="id-c652a4d6-ef5c-4885-9c7e-732bb8e424a1"
   d="m 1.71875,-3.984375 h 1.4375 v -0.3125 H 1.71875 V -6.125 h -0.25 c 0,0.8125 -0.296875,1.875 -1.28125,1.921875 v 0.21875 h 0.84375 v 2.75 c 0,1.21875 0.9375,1.34375 1.296875,1.34375 0.703125,0 0.984375,-0.703125 0.984375,-1.34375 v -0.5625 h -0.25 V -1.25 c 0,0.734375 -0.296875,1.109375 -0.671875,1.109375 -0.671875,0 -0.671875,-0.90625 -0.671875,-1.078125 z m 0,0"
   style="stroke:none" />
      </g><g
   transform="translate(180.07,134.765)"
   id="g1727"><path
   id="id-fd70e74a-b3a1-4a52-954c-4f79a564fb1d"
   d="M 1.765625,-4.40625 0.375,-4.296875 v 0.3125 c 0.640625,0 0.734375,0.0625 0.734375,0.546875 V -0.75 c 0,0.4375 -0.109375,0.4375 -0.78125,0.4375 V 0 C 0.640625,-0.015625 1.1875,-0.03125 1.421875,-0.03125 1.78125,-0.03125 2.125,-0.015625 2.46875,0 v -0.3125 c -0.671875,0 -0.703125,-0.046875 -0.703125,-0.4375 z m 0.03125,-1.734375 c 0,-0.3125 -0.234375,-0.53125 -0.515625,-0.53125 -0.3125,0 -0.53125,0.265625 -0.53125,0.53125 0,0.265625 0.21875,0.53125 0.53125,0.53125 0.28125,0 0.515625,-0.21875 0.515625,-0.53125 z m 0,0"
   style="stroke:none" />
      </g><g
   transform="translate(182.838,134.765)"
   id="g1730"><path
   id="id-a8495801-3a34-47c4-b5ce-755397b45b5a"
   d="M 4.6875,-2.140625 C 4.6875,-3.40625 3.703125,-4.46875 2.5,-4.46875 c -1.25,0 -2.21875,1.09375 -2.21875,2.328125 0,1.296875 1.03125,2.25 2.203125,2.25 1.203125,0 2.203125,-0.984375 2.203125,-2.25 z m -2.1875,2 c -0.4375,0 -0.875,-0.203125 -1.140625,-0.671875 -0.25,-0.4375 -0.25,-1.046875 -0.25,-1.40625 0,-0.390625 0,-0.921875 0.234375,-1.359375 C 1.609375,-4.03125 2.078125,-4.25 2.484375,-4.25 c 0.4375,0 0.859375,0.21875 1.125,0.65625 0.265625,0.421875 0.265625,1 0.265625,1.375 0,0.359375 0,0.90625 -0.21875,1.34375 C 3.421875,-0.421875 2.984375,-0.140625 2.5,-0.140625 Z m 0,0"
   style="stroke:none" />
      </g><g
   transform="translate(187.819,134.765)"
   id="g1733"><path
   id="id-cafbaaea-6e34-483b-b5d3-1a286ef78c85"
   d="M 1.09375,-3.421875 V -0.75 c 0,0.4375 -0.109375,0.4375 -0.78125,0.4375 V 0 c 0.359375,-0.015625 0.859375,-0.03125 1.140625,-0.03125 0.25,0 0.765625,0.015625 1.109375,0.03125 v -0.3125 c -0.671875,0 -0.78125,0 -0.78125,-0.4375 V -2.59375 C 1.78125,-3.625 2.5,-4.1875 3.125,-4.1875 c 0.640625,0 0.75,0.53125 0.75,1.109375 V -0.75 c 0,0.4375 -0.109375,0.4375 -0.78125,0.4375 V 0 c 0.34375,-0.015625 0.859375,-0.03125 1.125,-0.03125 0.25,0 0.78125,0.015625 1.109375,0.03125 v -0.3125 c -0.515625,0 -0.765625,0 -0.765625,-0.296875 v -1.90625 c 0,-0.859375 0,-1.15625 -0.3125,-1.515625 -0.140625,-0.171875 -0.46875,-0.375 -1.046875,-0.375 C 2.46875,-4.40625 2,-3.984375 1.71875,-3.359375 V -4.40625 L 0.3125,-4.296875 v 0.3125 c 0.703125,0 0.78125,0.0625 0.78125,0.5625 z m 0,0"
   style="stroke:none" />
      </g></g>
    <g
   id="id-39a0892a-9943-4b5b-b742-c7889163cf4f"
   style="fill:#000000;fill-opacity:1">
      <g
   transform="translate(196.672,134.765)"
   id="g1737"><path
   id="id-34e78d18-e15d-4e9f-967d-0fa8ad2fa39f"
   d="m 1.71875,-3.75 v -0.65625 l -1.4375,0.109375 v 0.3125 c 0.703125,0 0.78125,0.0625 0.78125,0.5 v 4.65625 C 1.0625,1.625 0.953125,1.625 0.28125,1.625 V 1.9375 C 0.625,1.921875 1.140625,1.90625 1.390625,1.90625 c 0.28125,0 0.78125,0.015625 1.125,0.03125 V 1.625 C 1.859375,1.625 1.75,1.625 1.75,1.171875 V -0.59375 c 0.046875,0.171875 0.46875,0.703125 1.21875,0.703125 1.1875,0 2.21875,-0.984375 2.21875,-2.265625 0,-1.265625 -0.953125,-2.25 -2.078125,-2.25 -0.78125,0 -1.203125,0.4375 -1.390625,0.65625 z M 1.75,-1.140625 v -2.21875 C 2.03125,-3.875 2.515625,-4.15625 3.03125,-4.15625 c 0.734375,0 1.328125,0.875 1.328125,2 0,1.203125 -0.6875,2.046875 -1.421875,2.046875 -0.40625,0 -0.78125,-0.203125 -1.046875,-0.609375 C 1.75,-0.921875 1.75,-0.9375 1.75,-1.140625 Z m 0,0"
   style="stroke:none" />
      </g><g
   transform="translate(202.207,134.765)"
   id="g1740"><path
   id="id-0012914d-a936-41dc-a68b-95a7bf55e301"
   d="M 1.671875,-3.3125 V -4.40625 L 0.28125,-4.296875 v 0.3125 c 0.703125,0 0.78125,0.0625 0.78125,0.5625 V -0.75 c 0,0.4375 -0.109375,0.4375 -0.78125,0.4375 V 0 c 0.390625,-0.015625 0.859375,-0.03125 1.140625,-0.03125 0.390625,0 0.859375,0 1.265625,0.03125 V -0.3125 H 2.46875 c -0.734375,0 -0.75,-0.109375 -0.75,-0.46875 V -2.3125 c 0,-0.984375 0.421875,-1.875 1.171875,-1.875 0.0625,0 0.09375,0 0.109375,0.015625 -0.03125,0 -0.234375,0.125 -0.234375,0.390625 0,0.265625 0.21875,0.421875 0.4375,0.421875 0.171875,0 0.421875,-0.125 0.421875,-0.4375 0,-0.3125 -0.3125,-0.609375 -0.734375,-0.609375 -0.734375,0 -1.09375,0.671875 -1.21875,1.09375 z m 0,0"
   style="stroke:none" />
      </g><g
   transform="translate(206.11,134.765)"
   id="g1743"><path
   id="id-ff24f3d9-0c8b-4bf1-95ec-dffad45e18d7"
   d="M 4.6875,-2.140625 C 4.6875,-3.40625 3.703125,-4.46875 2.5,-4.46875 c -1.25,0 -2.21875,1.09375 -2.21875,2.328125 0,1.296875 1.03125,2.25 2.203125,2.25 1.203125,0 2.203125,-0.984375 2.203125,-2.25 z m -2.1875,2 c -0.4375,0 -0.875,-0.203125 -1.140625,-0.671875 -0.25,-0.4375 -0.25,-1.046875 -0.25,-1.40625 0,-0.390625 0,-0.921875 0.234375,-1.359375 C 1.609375,-4.03125 2.078125,-4.25 2.484375,-4.25 c 0.4375,0 0.859375,0.21875 1.125,0.65625 0.265625,0.421875 0.265625,1 0.265625,1.375 0,0.359375 0,0.90625 -0.21875,1.34375 C 3.421875,-0.421875 2.984375,-0.140625 2.5,-0.140625 Z m 0,0"
   style="stroke:none" />
      </g><g
   transform="translate(211.091,134.765)"
   id="g1746"><path
   id="id-79cb4fdb-1725-4a81-b888-4b5915879bed"
   d="m 1.71875,-3.765625 v -3.15625 L 0.28125,-6.8125 V -6.5 c 0.703125,0 0.78125,0.0625 0.78125,0.5625 V 0 h 0.25 c 0,-0.015625 0.078125,-0.15625 0.359375,-0.625 0.140625,0.234375 0.5625,0.734375 1.296875,0.734375 1.1875,0 2.21875,-0.984375 2.21875,-2.265625 0,-1.265625 -0.96875,-2.25 -2.109375,-2.25 -0.78125,0 -1.203125,0.46875 -1.359375,0.640625 z m 0.03125,2.625 V -3.1875 c 0,-0.1875 0,-0.203125 0.109375,-0.359375 C 2.25,-4.109375 2.796875,-4.1875 3.03125,-4.1875 c 0.453125,0 0.8125,0.265625 1.046875,0.640625 0.265625,0.40625 0.28125,0.96875 0.28125,1.390625 0,0.359375 -0.015625,0.953125 -0.296875,1.40625 -0.21875,0.3125 -0.59375,0.640625 -1.125,0.640625 -0.453125,0 -0.8125,-0.234375 -1.046875,-0.609375 C 1.75,-0.921875 1.75,-0.953125 1.75,-1.140625 Z m 0,0"
   style="stroke:none" />
      </g><g
   transform="translate(216.626,134.765)"
   id="g1749"><path
   id="id-af3adad5-49bc-4846-98be-c371cb29afcf"
   d="m 3.3125,-0.75 c 0.046875,0.390625 0.3125,0.8125 0.78125,0.8125 0.21875,0 0.828125,-0.140625 0.828125,-0.953125 v -0.5625 h -0.25 v 0.5625 c 0,0.578125 -0.25,0.640625 -0.359375,0.640625 -0.328125,0 -0.375,-0.453125 -0.375,-0.5 v -1.984375 c 0,-0.421875 0,-0.8125 -0.359375,-1.1875 C 3.1875,-4.3125 2.6875,-4.46875 2.21875,-4.46875 c -0.828125,0 -1.515625,0.46875 -1.515625,1.125 0,0.296875 0.203125,0.46875 0.46875,0.46875 0.28125,0 0.453125,-0.203125 0.453125,-0.453125 0,-0.125 -0.046875,-0.453125 -0.515625,-0.453125 C 1.390625,-4.140625 1.875,-4.25 2.1875,-4.25 c 0.5,0 1.0625,0.390625 1.0625,1.28125 v 0.359375 c -0.515625,0.03125 -1.203125,0.0625 -1.828125,0.359375 -0.75,0.34375 -1,0.859375 -1,1.296875 0,0.8125 0.96875,1.0625 1.59375,1.0625 0.65625,0 1.109375,-0.40625 1.296875,-0.859375 z M 3.25,-2.390625 v 1 c 0,0.9375 -0.71875,1.28125 -1.171875,1.28125 -0.484375,0 -0.890625,-0.34375 -0.890625,-0.84375 0,-0.546875 0.421875,-1.375 2.0625,-1.4375 z m 0,0"
   style="stroke:none" />
      </g><g
   transform="translate(221.607,134.765)"
   id="g1752"><path
   id="id-832d6711-8bfb-4a4f-8bbf-5cb8d38d8a9f"
   d="m 1.71875,-3.765625 v -3.15625 L 0.28125,-6.8125 V -6.5 c 0.703125,0 0.78125,0.0625 0.78125,0.5625 V 0 h 0.25 c 0,-0.015625 0.078125,-0.15625 0.359375,-0.625 0.140625,0.234375 0.5625,0.734375 1.296875,0.734375 1.1875,0 2.21875,-0.984375 2.21875,-2.265625 0,-1.265625 -0.96875,-2.25 -2.109375,-2.25 -0.78125,0 -1.203125,0.46875 -1.359375,0.640625 z m 0.03125,2.625 V -3.1875 c 0,-0.1875 0,-0.203125 0.109375,-0.359375 C 2.25,-4.109375 2.796875,-4.1875 3.03125,-4.1875 c 0.453125,0 0.8125,0.265625 1.046875,0.640625 0.265625,0.40625 0.28125,0.96875 0.28125,1.390625 0,0.359375 -0.015625,0.953125 -0.296875,1.40625 -0.21875,0.3125 -0.59375,0.640625 -1.125,0.640625 -0.453125,0 -0.8125,-0.234375 -1.046875,-0.609375 C 1.75,-0.921875 1.75,-0.953125 1.75,-1.140625 Z m 0,0"
   style="stroke:none" />
      </g><g
   transform="translate(227.143,134.765)"
   id="g1755"><path
   id="id-ed318dd4-6454-446f-80a7-c2a5755259f3"
   d="M 1.765625,-4.40625 0.375,-4.296875 v 0.3125 c 0.640625,0 0.734375,0.0625 0.734375,0.546875 V -0.75 c 0,0.4375 -0.109375,0.4375 -0.78125,0.4375 V 0 C 0.640625,-0.015625 1.1875,-0.03125 1.421875,-0.03125 1.78125,-0.03125 2.125,-0.015625 2.46875,0 v -0.3125 c -0.671875,0 -0.703125,-0.046875 -0.703125,-0.4375 z m 0.03125,-1.734375 c 0,-0.3125 -0.234375,-0.53125 -0.515625,-0.53125 -0.3125,0 -0.53125,0.265625 -0.53125,0.53125 0,0.265625 0.21875,0.53125 0.53125,0.53125 0.28125,0 0.515625,-0.21875 0.515625,-0.53125 z m 0,0"
   style="stroke:none" />
      </g><g
   transform="translate(229.91,134.765)"
   id="g1758"><path
   id="id-44b5bdbd-4e02-4abf-b13f-fd478e310ea0"
   d="M 1.765625,-6.921875 0.328125,-6.8125 V -6.5 c 0.703125,0 0.78125,0.0625 0.78125,0.5625 V -0.75 c 0,0.4375 -0.109375,0.4375 -0.78125,0.4375 V 0 C 0.65625,-0.015625 1.1875,-0.03125 1.4375,-0.03125 c 0.25,0 0.734375,0.015625 1.109375,0.03125 v -0.3125 c -0.671875,0 -0.78125,0 -0.78125,-0.4375 z m 0,0"
   style="stroke:none" />
      </g><g
   transform="translate(232.678,134.765)"
   id="g1761"><path
   id="id-dd3731f3-bcf4-4146-ad89-82a756972a66"
   d="M 1.765625,-4.40625 0.375,-4.296875 v 0.3125 c 0.640625,0 0.734375,0.0625 0.734375,0.546875 V -0.75 c 0,0.4375 -0.109375,0.4375 -0.78125,0.4375 V 0 C 0.640625,-0.015625 1.1875,-0.03125 1.421875,-0.03125 1.78125,-0.03125 2.125,-0.015625 2.46875,0 v -0.3125 c -0.671875,0 -0.703125,-0.046875 -0.703125,-0.4375 z m 0.03125,-1.734375 c 0,-0.3125 -0.234375,-0.53125 -0.515625,-0.53125 -0.3125,0 -0.53125,0.265625 -0.53125,0.53125 0,0.265625 0.21875,0.53125 0.53125,0.53125 0.28125,0 0.515625,-0.21875 0.515625,-0.53125 z m 0,0"
   style="stroke:none" />
      </g><g
   transform="translate(235.445,134.765)"
   id="g1764"><path
   id="id-4cfe2eb2-7e6a-48b5-b083-c1d83dd826e2"
   d="m 1.71875,-3.984375 h 1.4375 v -0.3125 H 1.71875 V -6.125 h -0.25 c 0,0.8125 -0.296875,1.875 -1.28125,1.921875 v 0.21875 h 0.84375 v 2.75 c 0,1.21875 0.9375,1.34375 1.296875,1.34375 0.703125,0 0.984375,-0.703125 0.984375,-1.34375 v -0.5625 h -0.25 V -1.25 c 0,0.734375 -0.296875,1.109375 -0.671875,1.109375 -0.671875,0 -0.671875,-0.90625 -0.671875,-1.078125 z m 0,0"
   style="stroke:none" />
      </g></g>
    <g
   id="id-8eca1d5f-40bf-4798-a620-3d2a6ec15b3a"
   style="fill:#000000;fill-opacity:1">
      <g
   transform="translate(239.041,134.765)"
   id="g1768"><path
   id="id-6f5dbef2-ee4c-4596-9d3c-da0e19091f27"
   d="m 4.140625,-3.34375 c 0.25,-0.640625 0.765625,-0.640625 0.921875,-0.640625 v -0.3125 c -0.234375,0.015625 -0.515625,0.03125 -0.75,0.03125 -0.171875,0 -0.640625,-0.015625 -0.859375,-0.03125 v 0.3125 c 0.3125,0 0.46875,0.171875 0.46875,0.421875 0,0.109375 -0.015625,0.125 -0.0625,0.25 L 2.84375,-0.875 1.75,-3.546875 C 1.703125,-3.65625 1.6875,-3.6875 1.6875,-3.734375 c 0,-0.25 0.359375,-0.25 0.5625,-0.25 v -0.3125 c -0.265625,0.015625 -0.921875,0.03125 -1.09375,0.03125 -0.265625,0 -0.671875,-0.015625 -0.96875,-0.03125 v 0.3125 c 0.484375,0 0.671875,0 0.8125,0.34375 L 2.5,0 C 2.4375,0.125 2.296875,0.453125 2.25,0.59375 2.03125,1.140625 1.75,1.828125 1.109375,1.828125 c -0.046875,0 -0.28125,0 -0.46875,-0.1875 0.3125,-0.03125 0.390625,-0.25 0.390625,-0.421875 0,-0.25 -0.1875,-0.40625 -0.421875,-0.40625 -0.203125,0 -0.421875,0.125 -0.421875,0.421875 0,0.453125 0.421875,0.8125 0.921875,0.8125 0.625,0 1.03125,-0.578125 1.265625,-1.140625 z m 0,0"
   style="stroke:none" />
      </g></g>
    <g
   id="id-7c64e86b-2e7d-4134-b8ec-f9be52984728"
   style="fill:#000000;fill-opacity:1">
      <g
   transform="translate(247.617,134.765)"
   id="g1772"><path
   id="id-a93d30e3-f021-4c27-890f-ae6e4281f54c"
   d="M 1.09375,-3.421875 V -0.75 c 0,0.4375 -0.109375,0.4375 -0.78125,0.4375 V 0 c 0.359375,-0.015625 0.859375,-0.03125 1.140625,-0.03125 0.25,0 0.765625,0.015625 1.109375,0.03125 v -0.3125 c -0.671875,0 -0.78125,0 -0.78125,-0.4375 V -2.59375 C 1.78125,-3.625 2.5,-4.1875 3.125,-4.1875 c 0.640625,0 0.75,0.53125 0.75,1.109375 V -0.75 c 0,0.4375 -0.109375,0.4375 -0.78125,0.4375 V 0 c 0.34375,-0.015625 0.859375,-0.03125 1.125,-0.03125 0.25,0 0.78125,0.015625 1.109375,0.03125 v -0.3125 c -0.65625,0 -0.765625,0 -0.765625,-0.4375 v -1.84375 c 0,-1.03125 0.703125,-1.59375 1.34375,-1.59375 0.625,0 0.734375,0.53125 0.734375,1.109375 V -0.75 c 0,0.4375 -0.109375,0.4375 -0.78125,0.4375 V 0 c 0.34375,-0.015625 0.859375,-0.03125 1.125,-0.03125 0.265625,0 0.78125,0.015625 1.125,0.03125 v -0.3125 c -0.515625,0 -0.765625,0 -0.78125,-0.296875 v -1.90625 c 0,-0.859375 0,-1.15625 -0.3125,-1.515625 -0.140625,-0.171875 -0.46875,-0.375 -1.046875,-0.375 -0.828125,0 -1.28125,0.59375 -1.4375,0.984375 C 4.390625,-4.296875 3.65625,-4.40625 3.203125,-4.40625 2.46875,-4.40625 2,-3.984375 1.71875,-3.359375 V -4.40625 L 0.3125,-4.296875 v 0.3125 c 0.703125,0 0.78125,0.0625 0.78125,0.5625 z m 0,0"
   style="stroke:none" />
      </g><g
   transform="translate(255.919,134.765)"
   id="g1775"><path
   id="id-d1cfeed9-bf5d-4b60-bf3f-953b5c9e18e2"
   d="m 3.3125,-0.75 c 0.046875,0.390625 0.3125,0.8125 0.78125,0.8125 0.21875,0 0.828125,-0.140625 0.828125,-0.953125 v -0.5625 h -0.25 v 0.5625 c 0,0.578125 -0.25,0.640625 -0.359375,0.640625 -0.328125,0 -0.375,-0.453125 -0.375,-0.5 v -1.984375 c 0,-0.421875 0,-0.8125 -0.359375,-1.1875 C 3.1875,-4.3125 2.6875,-4.46875 2.21875,-4.46875 c -0.828125,0 -1.515625,0.46875 -1.515625,1.125 0,0.296875 0.203125,0.46875 0.46875,0.46875 0.28125,0 0.453125,-0.203125 0.453125,-0.453125 0,-0.125 -0.046875,-0.453125 -0.515625,-0.453125 C 1.390625,-4.140625 1.875,-4.25 2.1875,-4.25 c 0.5,0 1.0625,0.390625 1.0625,1.28125 v 0.359375 c -0.515625,0.03125 -1.203125,0.0625 -1.828125,0.359375 -0.75,0.34375 -1,0.859375 -1,1.296875 0,0.8125 0.96875,1.0625 1.59375,1.0625 0.65625,0 1.109375,-0.40625 1.296875,-0.859375 z M 3.25,-2.390625 v 1 c 0,0.9375 -0.71875,1.28125 -1.171875,1.28125 -0.484375,0 -0.890625,-0.34375 -0.890625,-0.84375 0,-0.546875 0.421875,-1.375 2.0625,-1.4375 z m 0,0"
   style="stroke:none" />
      </g><g
   transform="translate(260.9,134.765)"
   id="g1778"><path
   id="id-4264bffe-cf3b-4b31-a56f-4a493ce77e0d"
   d="m 1.71875,-3.984375 h 1.4375 v -0.3125 H 1.71875 V -6.125 h -0.25 c 0,0.8125 -0.296875,1.875 -1.28125,1.921875 v 0.21875 h 0.84375 v 2.75 c 0,1.21875 0.9375,1.34375 1.296875,1.34375 0.703125,0 0.984375,-0.703125 0.984375,-1.34375 v -0.5625 h -0.25 V -1.25 c 0,0.734375 -0.296875,1.109375 -0.671875,1.109375 -0.671875,0 -0.671875,-0.90625 -0.671875,-1.078125 z m 0,0"
   style="stroke:none" />
      </g><g
   transform="translate(264.774,134.765)"
   id="g1781"><path
   id="id-875a2a0b-c2fd-49ff-854e-bd53273271c5"
   d="M 1.671875,-3.3125 V -4.40625 L 0.28125,-4.296875 v 0.3125 c 0.703125,0 0.78125,0.0625 0.78125,0.5625 V -0.75 c 0,0.4375 -0.109375,0.4375 -0.78125,0.4375 V 0 c 0.390625,-0.015625 0.859375,-0.03125 1.140625,-0.03125 0.390625,0 0.859375,0 1.265625,0.03125 V -0.3125 H 2.46875 c -0.734375,0 -0.75,-0.109375 -0.75,-0.46875 V -2.3125 c 0,-0.984375 0.421875,-1.875 1.171875,-1.875 0.0625,0 0.09375,0 0.109375,0.015625 -0.03125,0 -0.234375,0.125 -0.234375,0.390625 0,0.265625 0.21875,0.421875 0.4375,0.421875 0.171875,0 0.421875,-0.125 0.421875,-0.4375 0,-0.3125 -0.3125,-0.609375 -0.734375,-0.609375 -0.734375,0 -1.09375,0.671875 -1.21875,1.09375 z m 0,0"
   style="stroke:none" />
      </g><g
   transform="translate(268.677,134.765)"
   id="g1784"><path
   id="id-056e99ab-71a7-4f5b-8e09-3f6bd57addcb"
   d="M 1.765625,-4.40625 0.375,-4.296875 v 0.3125 c 0.640625,0 0.734375,0.0625 0.734375,0.546875 V -0.75 c 0,0.4375 -0.109375,0.4375 -0.78125,0.4375 V 0 C 0.640625,-0.015625 1.1875,-0.03125 1.421875,-0.03125 1.78125,-0.03125 2.125,-0.015625 2.46875,0 v -0.3125 c -0.671875,0 -0.703125,-0.046875 -0.703125,-0.4375 z m 0.03125,-1.734375 c 0,-0.3125 -0.234375,-0.53125 -0.515625,-0.53125 -0.3125,0 -0.53125,0.265625 -0.53125,0.53125 0,0.265625 0.21875,0.53125 0.53125,0.53125 0.28125,0 0.515625,-0.21875 0.515625,-0.53125 z m 0,0"
   style="stroke:none" />
      </g><g
   transform="translate(271.444,134.765)"
   id="g1787"><path
   id="id-1929856c-0ad3-4087-ad78-0ada0c3df634"
   d="M 2.859375,-2.34375 C 3.15625,-2.71875 3.53125,-3.203125 3.78125,-3.46875 4.09375,-3.828125 4.5,-3.984375 4.96875,-3.984375 v -0.3125 c -0.265625,0.015625 -0.5625,0.03125 -0.828125,0.03125 -0.296875,0 -0.828125,-0.015625 -0.953125,-0.03125 v 0.3125 c 0.21875,0.015625 0.296875,0.140625 0.296875,0.3125 0,0.15625 -0.109375,0.28125 -0.15625,0.34375 L 2.71875,-2.546875 1.9375,-3.5625 C 1.84375,-3.65625 1.84375,-3.671875 1.84375,-3.734375 c 0,-0.15625 0.15625,-0.25 0.34375,-0.25 v -0.3125 c -0.25,0.015625 -0.90625,0.03125 -1.078125,0.03125 -0.203125,0 -0.671875,-0.015625 -0.9375,-0.03125 v 0.3125 c 0.703125,0 0.703125,0 1.171875,0.609375 l 0.984375,1.28125 -0.9375,1.1875 C 0.921875,-0.328125 0.328125,-0.3125 0.125,-0.3125 V 0 c 0.25,-0.015625 0.5625,-0.03125 0.828125,-0.03125 0.28125,0 0.703125,0.015625 0.9375,0.03125 v -0.3125 c -0.21875,-0.03125 -0.28125,-0.15625 -0.28125,-0.3125 0,-0.21875 0.28125,-0.546875 0.890625,-1.265625 l 0.765625,1 C 3.34375,-0.78125 3.46875,-0.625 3.46875,-0.5625 c 0,0.09375 -0.09375,0.25 -0.359375,0.25 V 0 C 3.40625,-0.015625 3.96875,-0.03125 4.1875,-0.03125 c 0.265625,0 0.65625,0.015625 0.953125,0.03125 v -0.3125 c -0.53125,0 -0.71875,-0.015625 -0.9375,-0.3125 z m 0,0"
   style="stroke:none" />
      </g></g>
  </g>
</g><path
       sodipodi:nodetypes="cc"
       id="path1888"
       d="m 457.56522,69.215893 c 46.85813,20.283214 68.66115,46.560727 68.66115,46.560727"
       style="fill:none;stroke:#000000;stroke-width:0.75;stroke-linecap:butt;stroke-linejoin:miter;stroke-miterlimit:4;stroke-dasharray:0.75, 1.50000000000000000;stroke-dashoffset:0;stroke-opacity:0.45379615;marker-end:url(#Arrow1Lend)" /></g></svg>
